<svg width="14" height="8" viewBox="0 0 14 8" fill="none" xmlns="http://www.w3.org/2000/svg">
<path opacity="0.75" d="M5.57771 7.87172C5.72293 7.95724 5.887 8.00145 6.05359 7.99996C6.22018 7.99847 6.3835 7.95133 6.52731 7.86323C6.67112 7.77513 6.79042 7.64913 6.87334 7.49775C6.95627 7.34638 6.99994 7.17491 7 7.00038L7 1.00029C7.00005 0.825704 6.95646 0.654146 6.87358 0.502681C6.7907 0.351215 6.67141 0.225121 6.52758 0.136938C6.38375 0.0487547 6.22039 0.00155687 6.05375 3.76701e-05C5.8871 -0.00148106 5.72298 0.0427313 5.57771 0.128279L0.48673 3.12832C0.339066 3.2153 0.216156 3.34188 0.130619 3.49507C0.0450826 3.64825 -4.76837e-07 3.82253 -4.76837e-07 4C-4.76837e-07 4.17747 0.0450826 4.35175 0.130619 4.50493C0.216156 4.65812 0.339066 4.7847 0.48673 4.87168L5.57771 7.87172Z" fill="#141414"/>
<path opacity="0.75" d="M8 4H13" stroke="black" stroke-linecap="round"/>
</svg>
