<svg width="354" height="264" viewBox="0 0 354 264" fill="none" xmlns="http://www.w3.org/2000/svg">
<path d="M353.788 231.66H6.10352e-05V231.837H353.788V231.66Z" fill="#EBEBEB"/>
<path d="M318.338 243.045H294.903V243.222H318.338V243.045Z" fill="#EBEBEB"/>
<path d="M234.363 244.97H228.214V245.147H234.363V244.97Z" fill="#EBEBEB"/>
<path d="M294.196 236.479H280.617V236.656H294.196V236.479Z" fill="#EBEBEB"/>
<path d="M67.6797 237.667H37.1195V237.844H67.6797V237.667Z" fill="#EBEBEB"/>
<path d="M78.4631 237.667H73.9842V237.844H78.4631V237.667Z" fill="#EBEBEB"/>
<path d="M159.311 240.654H93.025V240.83H159.311V240.654Z" fill="#EBEBEB"/>
<path d="M167.695 200.102H31.0696C29.9993 200.101 28.9735 199.674 28.2173 198.917C27.4612 198.159 27.0365 197.132 27.0365 196.062V4.00488C27.0458 2.9407 27.4746 1.92318 28.2298 1.17331C28.9849 0.423454 30.0054 0.00182299 31.0696 0H167.695C168.767 0 169.795 0.425669 170.552 1.18336C171.31 1.94106 171.736 2.96871 171.736 4.04026V196.062C171.736 197.134 171.31 198.161 170.552 198.919C169.795 199.677 168.767 200.102 167.695 200.102ZM31.0696 0.141516C30.0462 0.14339 29.0654 0.551247 28.3424 1.27557C27.6194 1.99988 27.2134 2.98148 27.2134 4.00488V196.062C27.2134 197.086 27.6194 198.067 28.3424 198.791C29.0654 199.516 30.0462 199.924 31.0696 199.925H167.695C168.719 199.924 169.701 199.516 170.425 198.792C171.149 198.068 171.557 197.086 171.559 196.062V4.00488C171.557 2.98082 171.149 1.99925 170.425 1.27513C169.701 0.551018 168.719 0.143386 167.695 0.141516H31.0696Z" fill="#EBEBEB"/>
<path d="M320.751 200.102H184.118C183.047 200.101 182.021 199.674 181.263 198.917C180.506 198.16 180.08 197.133 180.078 196.062V4.00488C180.089 2.94006 180.52 1.92254 181.276 1.17287C182.032 0.423207 183.053 0.00180311 184.118 0H320.751C321.814 0.00368257 322.833 0.426137 323.586 1.1758C324.34 1.92546 324.768 2.94192 324.777 4.00488V196.062C324.777 197.131 324.354 198.157 323.599 198.914C322.844 199.671 321.82 200.099 320.751 200.102ZM184.118 0.141516C183.094 0.143386 182.113 0.551018 181.389 1.27513C180.664 1.99925 180.257 2.98082 180.255 4.00488V196.062C180.257 197.086 180.664 198.068 181.389 198.792C182.113 199.516 183.094 199.924 184.118 199.925H320.751C321.775 199.924 322.757 199.516 323.481 198.792C324.205 198.068 324.613 197.086 324.615 196.062V4.00488C324.613 2.98082 324.205 1.99925 323.481 1.27513C322.757 0.551018 321.775 0.143386 320.751 0.141516H184.118Z" fill="#EBEBEB"/>
<path d="M261.86 170.604V184.437L267.697 188.682H240.42L249.137 185.456V171.566L261.86 170.604Z" fill="#E0E0E0"/>
<path d="M184.125 188.286V231.865H318.331V188.286H184.125ZM186.319 191.116H294.068V205.36H186.319V191.116Z" fill="#E0E0E0"/>
<path d="M184.125 188.286V231.865H296.998V188.286H184.125ZM186.319 191.116H294.068V205.36H186.319V191.116Z" fill="#EBEBEB"/>
<path d="M186.326 205.353H205.968V191.109H186.326V205.353Z" fill="#E0E0E0"/>
<path d="M265.624 205.353H294.069V198.234H265.624V205.353Z" fill="#E0E0E0"/>
<path d="M245.529 205.353H263.827V201.121H245.529V205.353Z" fill="#E0E0E0"/>
<path d="M219.731 205.36H241.305V196.706H219.731V205.36Z" fill="#E0E0E0"/>
<path d="M272.643 208.452L273.167 210.157H280.165L280.688 208.452H294.068V227.358H259.27V208.452H272.643Z" fill="#E0E0E0"/>
<path d="M236.217 208.452L236.741 210.157H243.739L244.255 208.452H257.635V227.358H222.837V208.452H236.217Z" fill="#E0E0E0"/>
<path d="M199.791 208.452L200.315 210.157H207.306L207.829 208.452H221.209V227.358H186.411V208.452H199.791Z" fill="#E0E0E0"/>
<path d="M204.305 178.868H296.786C298.165 178.868 299.283 177.75 299.283 176.37V122.467C299.283 121.088 298.165 119.97 296.786 119.97L204.305 119.97C202.926 119.97 201.808 121.088 201.808 122.467V176.37C201.808 177.75 202.926 178.868 204.305 178.868Z" fill="#E0E0E0"/>
<path d="M202.013 178.868H294.493C295.873 178.868 296.991 177.75 296.991 176.37V122.467C296.991 121.088 295.873 119.97 294.493 119.97L202.013 119.97C200.633 119.97 199.515 121.088 199.515 122.467V176.37C199.515 177.75 200.633 178.868 202.013 178.868Z" fill="#E6E6E6"/>
<path d="M294.132 176.002V122.835H202.388V176.002H294.132Z" fill="#F0F0F0"/>
<path d="M308.92 20.1873H229.233V108.365H308.92V20.1873Z" fill="#E9E9E9"/>
<path d="M305.616 23.6826H232.736V105.054H305.616V23.6826Z" fill="#F4F4F4"/>
<path d="M253.333 23.6826L232.736 100.823V59.0614L242.161 23.6826H253.333Z" fill="white"/>
<path d="M262.539 23.6826L240.816 105.054H236.719L258.442 23.6826H262.539Z" fill="white"/>
<path d="M305.616 45.8721V87.6403L301.003 105.054H289.83L305.616 45.8721Z" fill="white"/>
<path d="M270.485 20.1873H267.655V108.365H270.485V20.1873Z" fill="#E9E9E9"/>
<path d="M307.385 38.0818H230.613V40.9121H307.385V38.0818Z" fill="#E9E9E9"/>
<path d="M50.4997 96.0393V117.981H81.541V96.0393H50.4997Z" fill="#E0E0E0"/>
<path d="M51.9573 97.4755V116.552H80.0834V97.4755H51.9573Z" fill="#EBEBEB"/>
<path d="M61.269 68.4863V90.4282H92.3104V68.4863H61.269Z" fill="#E0E0E0"/>
<path d="M62.7266 69.9225V88.9988H90.8527V69.9225H62.7266Z" fill="#EBEBEB"/>
<path d="M107.191 96.0464H87.4352V123.996H107.191V96.0464Z" fill="#E0E0E0"/>
<path d="M105.903 97.3623H88.723V122.686H105.903V97.3623Z" fill="#EBEBEB"/>
<path d="M118.427 59.3796H96.4851V90.421H118.427V59.3796Z" fill="#E0E0E0"/>
<path d="M116.991 60.8445H97.9144V88.9706H116.991V60.8445Z" fill="#EBEBEB"/>
<path d="M138.204 113.226V96.0464H113.899V113.226H138.204Z" fill="#E0E0E0"/>
<path d="M137.058 112.101V97.1643H115.038V112.101H137.058Z" fill="#EBEBEB"/>
<path d="M45.2849 145.414H122C123.658 145.416 125.247 146.076 126.419 147.248C127.59 148.421 128.248 150.011 128.248 151.669L136.739 205.77H47.4997L39.0088 151.669C39.0078 150.845 39.1697 150.03 39.485 149.269C39.8003 148.508 40.2629 147.818 40.8462 147.236C41.4295 146.655 42.1219 146.195 42.8837 145.882C43.6454 145.569 44.4615 145.41 45.2849 145.414Z" fill="#EBEBEB"/>
<path d="M136.513 166.337L136.421 166.061H166.139V231.866H129.345V173.95C129.317 171.999 130.05 170.113 131.387 168.693C132.725 167.272 134.563 166.427 136.513 166.337Z" fill="#E0E0E0"/>
<path d="M166.45 166.323C168.471 166.327 170.407 167.132 171.835 168.562C173.262 169.992 174.064 171.93 174.064 173.95V231.865H158.822V173.95C158.822 171.927 159.626 169.987 161.057 168.557C162.487 167.126 164.427 166.323 166.45 166.323Z" fill="#F0F0F0"/>
<path d="M50.8959 166.337L50.804 166.061H80.5221V231.866H43.7282V173.95C43.7004 171.999 44.4329 170.113 45.7706 168.693C47.1084 167.272 48.9464 166.427 50.8959 166.337Z" fill="#E0E0E0"/>
<path d="M88.4612 231.865H153.848V185.519H88.4612V231.865Z" fill="#E0E0E0"/>
<path d="M149.589 196.833H76.0008V180.764H149.589C151.72 180.764 153.765 181.611 155.272 183.119C156.78 184.626 157.627 186.671 157.627 188.803C157.625 190.933 156.777 192.976 155.27 194.482C153.763 195.988 151.719 196.833 149.589 196.833Z" fill="#F5F5F5"/>
<path d="M80.8335 166.323C82.854 166.327 84.7905 167.132 86.2179 168.562C87.6453 169.992 88.447 171.93 88.447 173.95V231.865H73.2058V173.95C73.2058 171.927 74.0094 169.987 75.4399 168.557C76.8704 167.126 78.8105 166.323 80.8335 166.323Z" fill="#F0F0F0"/>
<path d="M59.9954 206.57H47.4997L39.0088 151.669C39.0078 150.845 39.1697 150.03 39.485 149.269C39.8003 148.508 40.2629 147.818 40.8462 147.236C41.4295 146.655 42.1219 146.195 42.8837 145.882C43.6454 145.569 44.4615 145.41 45.2849 145.414C46.1064 145.414 46.9197 145.576 47.6786 145.89C48.4375 146.204 49.1271 146.665 49.7079 147.246C50.2887 147.827 50.7494 148.516 51.0638 149.275C51.3781 150.034 51.5399 150.847 51.5399 151.669L59.9954 206.57Z" fill="#E0E0E0"/>
<path d="M41.9805 14.4912V35.3789C41.9837 35.6493 42.0421 35.9162 42.152 36.1633C42.2619 36.4104 42.4211 36.6325 42.6198 36.8159C42.8185 36.9994 43.0525 37.1404 43.3076 37.2303C43.5627 37.3202 43.8334 37.3571 44.1032 37.3388H114.733C114.733 37.3388 122.899 33.5321 122.319 28.2111C121.859 23.9657 121.378 20.5056 120.981 17.8734C120.748 16.3278 119.966 14.9179 118.779 13.9017C117.591 12.8856 116.077 12.3312 114.514 12.3402H44.1032C43.822 12.3402 43.5437 12.396 43.2843 12.5044C43.0249 12.6129 42.7896 12.7718 42.5921 12.9719C42.3946 13.172 42.2389 13.4094 42.1339 13.6702C42.0289 13.931 41.9767 14.2101 41.9805 14.4912Z" fill="#F5F5F5"/>
<path d="M41.9805 14.4912V35.3789C41.9837 35.6493 42.0421 35.9162 42.152 36.1633C42.262 36.4104 42.4211 36.6325 42.6198 36.8159C42.8185 36.9994 43.0526 37.1404 43.3076 37.2303C43.5627 37.3202 43.8334 37.3572 44.1032 37.3389H50.337C50.337 37.3389 58.5024 33.5321 57.9222 28.2111C57.4552 23.9869 56.9811 20.5198 56.6061 17.8947C56.3731 16.3491 55.5912 14.9391 54.4035 13.923C53.2158 12.9068 51.7019 12.3525 50.1389 12.3614H44.1245C43.8433 12.3586 43.5644 12.4117 43.304 12.5175C43.0435 12.6234 42.8067 12.78 42.6072 12.9781C42.4077 13.1762 42.2496 13.412 42.1421 13.6718C42.0345 13.9315 41.9796 14.2101 41.9805 14.4912Z" fill="#E6E6E6"/>
<path d="M120.698 29.9163H58.9977C58.9977 29.9163 56.9599 34.4306 53.4998 36.2844H113.785C113.785 36.2844 120.168 33.3692 120.698 29.9163Z" fill="#E0E0E0"/>
<path d="M116.439 34.1687H56.875L57.7594 36.2985H116.439V34.1687Z" fill="#EBEBEB"/>
<path d="M118.569 31.5083H58.9977L59.8893 33.6381H118.569V31.5083Z" fill="#EBEBEB"/>
<path d="M61.1275 28.9399H62.6346V28.3173H61.1275V28.9399Z" fill="#E0E0E0"/>
<path d="M63.2502 28.9399H64.7574V28.3173H63.2502V28.9399Z" fill="#E0E0E0"/>
<path d="M176.894 263.614C252.663 263.614 314.086 260.028 314.086 255.605C314.086 251.181 252.663 247.595 176.894 247.595C101.125 247.595 39.7022 251.181 39.7022 255.605C39.7022 260.028 101.125 263.614 176.894 263.614Z" fill="#F5F5F5"/>
<path d="M64.1773 204.56C64.3259 205.6 61.5026 206.286 59.2243 206.683C59.4153 208.572 60.6394 210.482 62.4013 212.266C64.5877 211.034 67.701 209.435 68.2812 209.81C68.8614 210.185 65.6915 212.273 63.682 213.504C65.1097 214.746 66.6204 215.891 68.2034 216.928C69.1798 216.016 70.3261 215.209 71.0337 215.648C71.7413 216.086 71.5502 217.509 71.1964 218.775C73.5739 220.155 75.3499 220.997 75.3499 220.997C76.0413 218.79 76.5733 216.537 76.9419 214.254C76.8217 214.02 76.7014 213.78 76.5882 213.546C76.2061 212.662 76.5882 212.287 77.2108 212.166C77.3909 210.552 77.4051 208.923 77.2533 207.305C74.5645 206.739 71.2955 205.699 72.5196 204.086C73.2272 203.117 74.6423 203.003 76.015 203.244C75.824 202.923 75.6012 202.622 75.3499 202.345C70.4606 196.954 67.05 202.345 67.05 202.345C64.2197 199.975 60.2078 200.612 59.3445 204.319C60.9366 203.888 63.9933 203.279 64.1773 204.56Z" fill="#407BFF"/>
<path opacity="0.3" d="M64.1773 204.56C64.3259 205.6 61.5026 206.286 59.2243 206.683C59.4153 208.572 60.6394 210.482 62.4013 212.266C64.5877 211.034 67.701 209.435 68.2812 209.81C68.8614 210.185 65.6915 212.273 63.682 213.504C65.1097 214.746 66.6204 215.891 68.2034 216.928C69.1798 216.016 70.3261 215.209 71.0337 215.648C71.7413 216.086 71.5502 217.509 71.1964 218.775C73.5739 220.155 75.3499 220.997 75.3499 220.997C76.0413 218.79 76.5733 216.537 76.9419 214.254C76.8217 214.02 76.7014 213.78 76.5882 213.546C76.2061 212.662 76.5882 212.287 77.2108 212.166C77.3909 210.552 77.4051 208.923 77.2533 207.305C74.5645 206.739 71.2955 205.699 72.5196 204.086C73.2272 203.117 74.6423 203.003 76.015 203.244C75.824 202.923 75.6012 202.622 75.3499 202.345C70.4606 196.954 67.05 202.345 67.05 202.345C64.2197 199.975 60.2078 200.612 59.3445 204.319C60.9366 203.888 63.9933 203.279 64.1773 204.56Z" fill="white"/>
<path d="M70.2836 244.177L69.5761 244.121C69.5761 243.753 72.47 207.659 64.3683 204.256C63.9818 204.077 63.5591 203.989 63.1332 204C62.7073 204.011 62.2897 204.121 61.913 204.32C58.9907 205.841 57.5897 212.16 57.5756 212.223L56.868 212.075C56.9246 211.806 58.3539 205.367 61.5734 203.69C62.0423 203.442 62.5618 203.306 63.0918 203.291C63.6218 203.277 64.1481 203.384 64.6301 203.605C73.213 207.206 70.4039 242.698 70.2836 244.177Z" fill="#407BFF"/>
<path d="M71.3025 243.406C71.161 241.786 67.8495 203.598 74.0338 199.536C75.5197 198.56 76.8641 198.355 77.9608 198.921C80.8831 200.4 81.2652 206.64 81.2793 206.909L80.5718 206.952C80.5718 206.888 80.1967 200.845 77.6424 199.558C76.7579 199.112 75.6753 199.303 74.4229 200.124C68.5925 203.952 71.9747 242.946 72.003 243.342L71.3025 243.406Z" fill="#407BFF"/>
<path d="M72.2294 246.484C72.187 245.239 71.1681 216.009 76.7933 213.447C77.3185 213.203 77.8908 213.076 78.4702 213.076C79.0497 213.076 79.622 213.203 80.1472 213.447C84.0106 215.145 86.3951 222.349 86.5154 222.646L85.8432 222.865C85.8432 222.794 83.4516 215.662 79.8783 214.091C79.4463 213.885 78.9737 213.778 78.495 213.778C78.0163 213.778 77.5437 213.885 77.1117 214.091C72.7955 216.051 72.6469 238.149 72.9582 246.456L72.2294 246.484Z" fill="#407BFF"/>
<path d="M70.8002 245.147L70.0926 245.069C71.0903 236.366 72.9866 213.178 69.8874 210.398C69.7373 210.216 69.5377 210.082 69.3129 210.012C69.0881 209.941 68.8477 209.938 68.6209 210.001C66.5123 210.858 65.274 218.358 64.9627 221.202L64.2551 221.125C64.3754 220.035 65.5075 210.454 68.3591 209.365C68.7052 209.246 69.0786 209.232 69.4324 209.326C69.7863 209.419 70.1046 209.614 70.3473 209.888C74.3593 213.461 70.9488 243.852 70.8002 245.147Z" fill="#407BFF"/>
<path d="M58.9907 228.653H84.4139L82.2912 257.126H61.1135L58.9907 228.653Z" fill="#263238"/>
<path opacity="0.2" d="M66.7104 228.653L67.418 257.126H82.2912L84.4139 228.653H66.7104Z" fill="white"/>
<path d="M62.4508 218.202C62.189 218.91 60.2148 218.351 58.6653 217.799C58.1346 219.03 58.2549 220.629 58.7148 222.327C60.4766 222.327 62.9602 222.384 63.1796 222.83C63.3989 223.275 60.7384 223.488 59.0898 223.537C59.5442 224.795 60.0856 226.02 60.7101 227.202C61.6229 226.969 62.6064 226.87 62.8753 227.372C63.1442 227.875 62.5569 228.695 61.9059 229.353C62.8965 231.023 63.7032 232.184 63.7032 232.184C64.8881 231.054 65.9879 229.839 66.9934 228.547C66.9934 228.363 66.9934 228.172 66.9934 227.981C67.0642 227.273 67.425 227.195 67.8567 227.337C68.5197 226.401 69.0863 225.401 69.5478 224.351C68.0831 223.084 66.4203 221.322 67.7293 220.742C68.5218 220.403 69.3921 220.792 70.1704 221.45C70.1663 221.185 70.133 220.922 70.0714 220.664C68.9039 215.662 64.9556 217.834 64.9556 217.834C64.0145 215.4 61.3257 214.431 59.5285 216.419C60.6889 216.674 62.7833 217.346 62.4508 218.202Z" fill="#407BFF"/>
<path opacity="0.3" d="M62.4508 218.202C62.189 218.91 60.2148 218.351 58.6653 217.799C58.1346 219.03 58.2549 220.629 58.7148 222.327C60.4766 222.327 62.9602 222.384 63.1796 222.83C63.3989 223.275 60.7384 223.488 59.0898 223.537C59.5442 224.795 60.0856 226.02 60.7101 227.202C61.6229 226.969 62.6064 226.87 62.8753 227.372C63.1442 227.875 62.5569 228.695 61.9059 229.353C62.8965 231.023 63.7032 232.184 63.7032 232.184C64.8881 231.054 65.9879 229.839 66.9934 228.547C66.9934 228.363 66.9934 228.172 66.9934 227.981C67.0642 227.273 67.425 227.195 67.8567 227.337C68.5197 226.401 69.0863 225.401 69.5478 224.351C68.0831 223.084 66.4203 221.322 67.7293 220.742C68.5218 220.403 69.3921 220.792 70.1704 221.45C70.1663 221.185 70.133 220.922 70.0714 220.664C68.9039 215.662 64.9556 217.834 64.9556 217.834C64.0145 215.4 61.3257 214.431 59.5285 216.419C60.6889 216.674 62.7833 217.346 62.4508 218.202Z" fill="white"/>
<path d="M81.3289 221.584C80.538 221.65 79.7584 221.814 79.0081 222.073C78.8035 221.533 78.6865 220.965 78.6613 220.389C78.4986 215.266 82.1992 217.424 84.1097 215.917C84.5514 215.532 85.068 215.243 85.627 215.067C86.1859 214.892 86.7751 214.834 87.3575 214.898C87.1902 215.182 87.0435 215.477 86.9188 215.782C86.8722 215.894 86.8517 216.014 86.8588 216.135C86.866 216.255 86.9005 216.373 86.9599 216.478C87.0193 216.583 87.1019 216.673 87.2015 216.741C87.3011 216.81 87.4149 216.854 87.5343 216.872C88.0122 216.966 88.5075 216.907 88.9495 216.702C89.0808 216.63 89.2041 216.545 89.3174 216.447C89.6273 216.985 89.8652 217.56 90.025 218.16C90.2167 218.876 90.3282 219.612 90.3576 220.353C90.0643 220.415 89.7758 220.498 89.4943 220.601C89.3832 220.649 89.2844 220.722 89.2056 220.814C89.1267 220.906 89.0698 221.015 89.0391 221.132C89.0085 221.249 89.0049 221.372 89.0285 221.491C89.0522 221.609 89.1026 221.721 89.1759 221.818C89.4844 222.125 89.8434 222.376 90.2373 222.561C90.1041 223.381 89.8859 224.185 89.5863 224.959L89.3245 225.002C89.1405 225.037 88.9566 225.087 88.7726 225.136L88.4683 225.25C88.3424 225.305 88.2324 225.391 88.1483 225.5C88.0642 225.608 88.0088 225.736 87.9872 225.872C87.9755 226.006 87.9972 226.141 88.0503 226.264C88.1034 226.388 88.1862 226.496 88.2915 226.58C88.4119 226.668 88.5398 226.747 88.6735 226.813C88.1844 227.659 87.4848 228.363 86.6428 228.858C85.8992 228.522 85.1762 228.141 84.4776 227.719C84.6333 227.514 84.789 227.309 84.9305 227.096C85.0971 226.862 85.1748 226.576 85.1498 226.29C85.1042 226.01 84.9552 225.757 84.7323 225.582C84.6189 225.494 84.4893 225.43 84.3509 225.392C84.2125 225.354 84.068 225.344 83.9257 225.363C83.6459 225.408 83.3934 225.557 83.2181 225.78C83.0483 226.035 82.8573 226.276 82.6733 226.488C81.694 225.766 80.818 224.914 80.0694 223.955H80.1473C80.6111 223.834 81.0846 223.753 81.5624 223.714C81.8032 223.635 82.0088 223.474 82.1438 223.26C82.2788 223.045 82.3348 222.79 82.3022 222.539C82.2695 222.287 82.1502 222.055 81.9648 221.882C81.7794 221.709 81.5395 221.607 81.2865 221.591L81.3289 221.584Z" fill="#407BFF"/>
<path opacity="0.5" d="M81.3289 221.584C80.538 221.65 79.7584 221.814 79.0081 222.073C78.8035 221.533 78.6865 220.965 78.6613 220.389C78.4986 215.266 82.1992 217.424 84.1097 215.917C84.5514 215.532 85.068 215.243 85.627 215.067C86.1859 214.892 86.7751 214.834 87.3575 214.898C87.1902 215.182 87.0435 215.477 86.9188 215.782C86.8722 215.894 86.8517 216.014 86.8588 216.135C86.866 216.255 86.9005 216.373 86.9599 216.478C87.0193 216.583 87.1019 216.673 87.2015 216.741C87.3011 216.81 87.4149 216.854 87.5343 216.872C88.0122 216.966 88.5075 216.907 88.9495 216.702C89.0808 216.63 89.2041 216.545 89.3174 216.447C89.6273 216.985 89.8652 217.56 90.025 218.16C90.2167 218.876 90.3282 219.612 90.3576 220.353C90.0643 220.415 89.7758 220.498 89.4943 220.601C89.3832 220.649 89.2844 220.722 89.2056 220.814C89.1267 220.906 89.0698 221.015 89.0391 221.132C89.0085 221.249 89.0049 221.372 89.0285 221.491C89.0522 221.609 89.1026 221.721 89.1759 221.818C89.4844 222.125 89.8434 222.376 90.2373 222.561C90.1041 223.381 89.8859 224.185 89.5863 224.959L89.3245 225.002C89.1405 225.037 88.9566 225.087 88.7726 225.136L88.4683 225.25C88.3424 225.305 88.2324 225.391 88.1483 225.5C88.0642 225.608 88.0088 225.736 87.9872 225.872C87.9755 226.006 87.9972 226.141 88.0503 226.264C88.1034 226.388 88.1862 226.496 88.2915 226.58C88.4119 226.668 88.5398 226.747 88.6735 226.813C88.1844 227.659 87.4848 228.363 86.6428 228.858C85.8992 228.522 85.1762 228.141 84.4776 227.719C84.6333 227.514 84.789 227.309 84.9305 227.096C85.0971 226.862 85.1748 226.576 85.1498 226.29C85.1042 226.01 84.9552 225.757 84.7323 225.582C84.6189 225.494 84.4893 225.43 84.3509 225.392C84.2125 225.354 84.068 225.344 83.9257 225.363C83.6459 225.408 83.3934 225.557 83.2181 225.78C83.0483 226.035 82.8573 226.276 82.6733 226.488C81.694 225.766 80.818 224.914 80.0694 223.955H80.1473C80.6111 223.834 81.0846 223.753 81.5624 223.714C81.8032 223.635 82.0088 223.474 82.1438 223.26C82.2788 223.045 82.3348 222.79 82.3022 222.539C82.2695 222.287 82.1502 222.055 81.9648 221.882C81.7794 221.709 81.5395 221.607 81.2865 221.591L81.3289 221.584Z" fill="white"/>
<path d="M82.7865 203.909C83.224 203.596 83.6995 203.339 84.2016 203.145C84.0721 202.773 83.8834 202.424 83.6426 202.112C81.4774 199.345 80.501 202.112 78.817 202.154C78.4214 202.148 78.0289 202.224 77.6637 202.376C77.2986 202.528 76.9686 202.754 76.6942 203.039C76.9043 203.117 77.1098 203.207 77.3098 203.308C77.384 203.346 77.4484 203.4 77.4981 203.467C77.5478 203.534 77.5815 203.612 77.5965 203.694C77.6116 203.776 77.6076 203.86 77.5848 203.941C77.5621 204.021 77.5213 204.095 77.4655 204.157C77.2556 204.423 76.9651 204.614 76.6376 204.702C76.534 204.709 76.43 204.709 76.3263 204.702C76.405 205.119 76.5333 205.525 76.7084 205.912C76.9231 206.372 77.1889 206.806 77.5009 207.206C77.6813 207.111 77.8681 207.028 78.0599 206.959C78.1395 206.934 78.2238 206.927 78.3063 206.94C78.3888 206.953 78.4672 206.984 78.5356 207.032C78.604 207.08 78.6604 207.143 78.7006 207.216C78.7408 207.289 78.7637 207.371 78.7674 207.454C78.7418 207.751 78.6627 208.041 78.5339 208.31C78.9703 208.686 79.4446 209.016 79.9491 209.294L80.1047 209.195L80.4585 209.025C80.5266 208.994 80.5978 208.97 80.6708 208.954C80.7604 208.926 80.8557 208.922 80.9475 208.942C81.0392 208.962 81.1243 209.005 81.1944 209.067C81.2648 209.133 81.3169 209.216 81.3454 209.307C81.374 209.399 81.378 209.497 81.3572 209.591C81.333 209.69 81.3022 209.786 81.2652 209.881C81.8916 210.111 82.5669 210.174 83.2252 210.065C83.4703 209.563 83.683 209.045 83.862 208.515L83.3525 208.388C83.1638 208.337 82.9987 208.222 82.8855 208.063C82.7794 207.894 82.7438 207.691 82.7865 207.496C82.8054 207.4 82.8441 207.309 82.9002 207.229C82.9562 207.148 83.0283 207.081 83.1119 207.029C83.2803 206.923 83.4836 206.888 83.678 206.93C83.8761 206.987 84.0813 207.029 84.2794 207.079C84.4805 206.272 84.5686 205.441 84.5412 204.61H84.4917C84.1893 204.75 83.9004 204.919 83.6285 205.112C83.5462 205.165 83.4544 205.201 83.3581 205.219C83.2619 205.236 83.1632 205.234 83.0676 205.214C82.972 205.193 82.8814 205.154 82.801 205.098C82.7206 205.042 82.6519 204.971 82.5989 204.889C82.546 204.807 82.5097 204.715 82.4923 204.619C82.4748 204.522 82.4765 204.424 82.4972 204.328C82.5179 204.233 82.5572 204.142 82.6129 204.062C82.6686 203.981 82.7396 203.912 82.8218 203.86L82.7865 203.909Z" fill="#407BFF"/>
<path opacity="0.3" d="M82.7865 203.909C83.224 203.596 83.6995 203.339 84.2016 203.145C84.0721 202.773 83.8834 202.424 83.6426 202.112C81.4774 199.345 80.501 202.112 78.817 202.154C78.4214 202.148 78.0289 202.224 77.6637 202.376C77.2986 202.528 76.9686 202.754 76.6942 203.039C76.9043 203.117 77.1098 203.207 77.3098 203.308C77.384 203.346 77.4484 203.4 77.4981 203.467C77.5478 203.534 77.5815 203.612 77.5965 203.694C77.6116 203.776 77.6076 203.86 77.5848 203.941C77.5621 204.021 77.5213 204.095 77.4655 204.157C77.2556 204.423 76.9651 204.614 76.6376 204.702C76.534 204.709 76.43 204.709 76.3263 204.702C76.405 205.119 76.5333 205.525 76.7084 205.912C76.9231 206.372 77.1889 206.806 77.5009 207.206C77.6813 207.111 77.8681 207.028 78.0599 206.959C78.1395 206.934 78.2238 206.927 78.3063 206.94C78.3888 206.953 78.4672 206.984 78.5356 207.032C78.604 207.08 78.6604 207.143 78.7006 207.216C78.7408 207.289 78.7637 207.371 78.7674 207.454C78.7418 207.751 78.6627 208.041 78.5339 208.31C78.9703 208.686 79.4446 209.016 79.9491 209.294L80.1047 209.195L80.4585 209.025C80.5266 208.994 80.5978 208.97 80.6708 208.954C80.7604 208.926 80.8557 208.922 80.9475 208.942C81.0392 208.962 81.1243 209.005 81.1944 209.067C81.2648 209.133 81.3169 209.216 81.3454 209.307C81.374 209.399 81.378 209.497 81.3572 209.591C81.333 209.69 81.3022 209.786 81.2652 209.881C81.8916 210.111 82.5669 210.174 83.2252 210.065C83.4703 209.563 83.683 209.045 83.862 208.515L83.3525 208.388C83.1638 208.337 82.9987 208.222 82.8855 208.063C82.7794 207.894 82.7438 207.691 82.7865 207.496C82.8054 207.4 82.8441 207.309 82.9002 207.229C82.9562 207.148 83.0283 207.081 83.1119 207.029C83.2803 206.923 83.4836 206.888 83.678 206.93C83.8761 206.987 84.0813 207.029 84.2794 207.079C84.4805 206.272 84.5686 205.441 84.5412 204.61H84.4917C84.1893 204.75 83.9004 204.919 83.6285 205.112C83.5462 205.165 83.4544 205.201 83.3581 205.219C83.2619 205.236 83.1632 205.234 83.0676 205.214C82.972 205.193 82.8814 205.154 82.801 205.098C82.7206 205.042 82.6519 204.971 82.5989 204.889C82.546 204.807 82.5097 204.715 82.4923 204.619C82.4748 204.522 82.4765 204.424 82.4972 204.328C82.5179 204.233 82.5572 204.142 82.6129 204.062C82.6686 203.981 82.7396 203.912 82.8218 203.86L82.7865 203.909Z" fill="white"/>
<path d="M62.0828 209.039C61.9342 210.079 64.7574 210.765 67.0358 211.162C66.8448 213.051 65.6207 214.961 63.8517 216.737C61.6724 215.513 58.552 213.907 57.9789 214.282C57.4057 214.657 60.5474 216.78 62.5427 217.99C61.1164 219.23 59.6056 220.37 58.0213 221.4C57.0449 220.488 55.8986 219.688 55.191 220.12C54.4834 220.551 54.6745 221.988 55.0283 223.247C52.6508 224.662 50.8748 225.476 50.8748 225.476C50.1835 223.269 49.6514 221.016 49.2828 218.733C49.4031 218.492 49.5233 218.259 49.6295 218.025C50.0186 217.141 49.6295 216.766 49.0139 216.61C48.8302 214.996 48.816 213.366 48.9714 211.749C51.6602 211.19 54.9292 210.143 53.7051 208.53C52.9975 207.56 51.6178 207.447 50.2097 207.695C50.4008 207.371 50.6236 207.068 50.8748 206.789C55.7642 201.397 59.1747 206.789 59.1747 206.789C62.005 204.419 66.0099 205.062 66.8731 208.763C65.3235 208.36 62.2668 207.751 62.0828 209.039Z" fill="#407BFF"/>
<path opacity="0.5" d="M62.0828 209.039C61.9342 210.079 64.7574 210.765 67.0358 211.162C66.8448 213.051 65.6207 214.961 63.8517 216.737C61.6724 215.513 58.552 213.907 57.9789 214.282C57.4057 214.657 60.5474 216.78 62.5427 217.99C61.1164 219.23 59.6056 220.37 58.0213 221.4C57.0449 220.488 55.8986 219.688 55.191 220.12C54.4834 220.551 54.6745 221.988 55.0283 223.247C52.6508 224.662 50.8748 225.476 50.8748 225.476C50.1835 223.269 49.6514 221.016 49.2828 218.733C49.4031 218.492 49.5233 218.259 49.6295 218.025C50.0186 217.141 49.6295 216.766 49.0139 216.61C48.8302 214.996 48.816 213.366 48.9714 211.749C51.6602 211.19 54.9292 210.143 53.7051 208.53C52.9975 207.56 51.6178 207.447 50.2097 207.695C50.4008 207.371 50.6236 207.068 50.8748 206.789C55.7642 201.397 59.1747 206.789 59.1747 206.789C62.005 204.419 66.0099 205.062 66.8731 208.763C65.3235 208.36 62.2668 207.751 62.0828 209.039Z" fill="white"/>
<path d="M272.735 257.126L286.285 167.087V257.126H289.922V166.528L303.486 257.126H307.385L290.403 143.716L289.922 143.786V140.1H286.285V143.772L285.783 143.716L268.759 257.126H272.735Z" fill="#407BFF"/>
<path opacity="0.3" d="M272.735 257.126L286.285 167.087V257.126H289.922V166.528L303.486 257.126H307.385L290.403 143.716L289.922 143.786V140.1H286.285V143.772L285.783 143.716L268.759 257.126H272.735Z" fill="white"/>
<path d="M306.748 156.296H269.261L272.296 124.972H303.713L306.748 156.296Z" fill="#407BFF"/>
<g opacity="0.5">
<path d="M306.748 156.296H269.261L272.296 124.972H303.713L306.748 156.296Z" fill="white"/>
</g>
<path d="M212.273 115.625H199.947C199.684 115.625 199.432 115.521 199.246 115.335C199.061 115.149 198.956 114.897 198.956 114.634V85.4469C199.092 85.3827 199.207 85.2829 199.29 85.1582C199.373 85.0336 199.421 84.8886 199.428 84.7389C199.436 84.5893 199.402 84.4404 199.331 84.3083C199.261 84.1761 199.155 84.0657 199.027 83.9887C198.898 83.9117 198.751 83.8711 198.601 83.8711C198.451 83.8711 198.304 83.9118 198.176 83.9889C198.047 84.066 197.942 84.1765 197.871 84.3086C197.801 84.4408 197.767 84.5897 197.775 84.7394C197.781 84.8894 197.829 85.0347 197.913 85.1595C197.996 85.2842 198.112 85.3837 198.249 85.4469V114.627C198.248 114.851 198.291 115.072 198.376 115.278C198.461 115.485 198.586 115.672 198.744 115.83C198.902 115.988 199.089 116.113 199.296 116.198C199.502 116.283 199.723 116.326 199.947 116.326H212.273C212.535 116.326 212.787 116.43 212.973 116.616C213.159 116.801 213.263 117.053 213.263 117.316V134.022H213.971V117.323C213.971 117.1 213.927 116.879 213.842 116.673C213.756 116.467 213.631 116.28 213.474 116.122C213.316 115.965 213.129 115.84 212.923 115.754C212.717 115.669 212.496 115.625 212.273 115.625Z" fill="#407BFF"/>
<path opacity="0.4" d="M212.273 115.625H199.947C199.684 115.625 199.432 115.521 199.246 115.335C199.061 115.149 198.956 114.897 198.956 114.634V85.4469C199.092 85.3827 199.207 85.2829 199.29 85.1582C199.373 85.0336 199.421 84.8886 199.428 84.7389C199.436 84.5893 199.402 84.4404 199.331 84.3083C199.261 84.1761 199.155 84.0657 199.027 83.9887C198.898 83.9117 198.751 83.8711 198.601 83.8711C198.451 83.8711 198.304 83.9118 198.176 83.9889C198.047 84.066 197.942 84.1765 197.871 84.3086C197.801 84.4408 197.767 84.5897 197.775 84.7394C197.781 84.8894 197.829 85.0347 197.913 85.1595C197.996 85.2842 198.112 85.3837 198.249 85.4469V114.627C198.248 114.851 198.291 115.072 198.376 115.278C198.461 115.485 198.586 115.672 198.744 115.83C198.902 115.988 199.089 116.113 199.296 116.198C199.502 116.283 199.723 116.326 199.947 116.326H212.273C212.535 116.326 212.787 116.43 212.973 116.616C213.159 116.801 213.263 117.053 213.263 117.316V134.022H213.971V117.323C213.971 117.1 213.927 116.879 213.842 116.673C213.756 116.467 213.631 116.28 213.474 116.122C213.316 115.965 213.129 115.84 212.923 115.754C212.717 115.669 212.496 115.625 212.273 115.625Z" fill="white"/>
<path d="M227.019 133.322H200.152C199.101 133.322 198.249 134.174 198.249 135.225V163.592C198.249 164.643 199.101 165.495 200.152 165.495H227.019C228.07 165.495 228.922 164.643 228.922 163.592V135.225C228.922 134.174 228.07 133.322 227.019 133.322Z" fill="#407BFF"/>
<path opacity="0.4" d="M227.019 133.322H200.152C199.101 133.322 198.249 134.174 198.249 135.225V163.592C198.249 164.643 199.101 165.495 200.152 165.495H227.019C228.07 165.495 228.922 164.643 228.922 163.592V135.225C228.922 134.174 228.07 133.322 227.019 133.322Z" fill="white"/>
<path opacity="0.2" d="M215.648 151.825H211.523V155.95H215.648V151.825Z" fill="white"/>
<path opacity="0.2" d="M220.127 138.388H216.002V142.513H220.127V138.388Z" fill="white"/>
<path opacity="0.2" d="M211.169 156.303H207.044V160.429H211.169V156.303Z" fill="white"/>
<path opacity="0.2" d="M220.127 142.867H216.002V146.992H220.127V142.867Z" fill="white"/>
<path opacity="0.2" d="M220.127 147.346H216.002V151.471H220.127V147.346Z" fill="white"/>
<path opacity="0.2" d="M215.648 142.867H211.523V146.992H215.648V142.867Z" fill="white"/>
<path opacity="0.2" d="M215.648 133.675H211.523V138.034H215.648V133.675Z" fill="white"/>
<path opacity="0.2" d="M211.169 151.825H207.044V155.95H211.169V151.825Z" fill="white"/>
<path opacity="0.2" d="M215.648 138.388H211.523V142.513H215.648V138.388Z" fill="white"/>
<path opacity="0.2" d="M215.648 156.303H211.523V160.429H215.648V156.303Z" fill="white"/>
<path opacity="0.2" d="M220.127 156.303H216.002V160.429H220.127V156.303Z" fill="white"/>
<path opacity="0.2" d="M215.648 147.346H211.523V151.471H215.648V147.346Z" fill="white"/>
<path opacity="0.2" d="M220.127 133.675H216.002V138.034H220.127V133.675Z" fill="white"/>
<path opacity="0.2" d="M202.211 151.825H198.602V155.95H202.211V151.825Z" fill="white"/>
<path opacity="0.2" d="M202.211 138.388H198.602V142.513H202.211V138.388Z" fill="white"/>
<path opacity="0.2" d="M202.211 147.346H198.602V151.471H202.211V147.346Z" fill="white"/>
<path opacity="0.2" d="M202.211 142.867H198.602V146.992H202.211V142.867Z" fill="white"/>
<path opacity="0.2" d="M220.127 151.825H216.002V155.95H220.127V151.825Z" fill="white"/>
<path opacity="0.2" d="M224.96 138.034H228.547V135.204C228.547 134.793 228.384 134.399 228.093 134.108C227.803 133.817 227.408 133.654 226.997 133.654H224.938L224.96 138.034Z" fill="white"/>
<path opacity="0.2" d="M224.606 138.388H220.481V142.513H224.606V138.388Z" fill="white"/>
<path opacity="0.2" d="M202.211 156.303H198.602V160.429H202.211V156.303Z" fill="white"/>
<path opacity="0.2" d="M224.606 142.867H220.481V146.992H224.606V142.867Z" fill="white"/>
<path opacity="0.2" d="M224.606 147.346H220.481V151.471H224.606V147.346Z" fill="white"/>
<path opacity="0.2" d="M224.606 151.825H220.481V155.95H224.606V151.825Z" fill="white"/>
<path opacity="0.2" d="M224.606 156.303H220.481V160.429H224.606V156.303Z" fill="white"/>
<path opacity="0.2" d="M228.568 156.303H224.96V160.429H228.568V156.303Z" fill="white"/>
<path opacity="0.2" d="M224.606 133.675H220.481V138.034H224.606V133.675Z" fill="white"/>
<path opacity="0.2" d="M215.648 160.79H211.523V165.148H215.648V160.79Z" fill="white"/>
<path opacity="0.2" d="M220.127 160.79H216.002V165.148H220.127V160.79Z" fill="white"/>
<path opacity="0.2" d="M228.568 147.346H224.96V151.471H228.568V147.346Z" fill="white"/>
<path opacity="0.2" d="M224.606 160.79H220.481V165.148H224.606V160.79Z" fill="white"/>
<path opacity="0.2" d="M228.568 151.825H224.96V155.95H228.568V151.825Z" fill="white"/>
<path opacity="0.2" d="M202.204 160.79H198.602V163.62C198.604 164.03 198.768 164.422 199.059 164.711C199.349 165 199.742 165.162 200.152 165.162H202.204V160.79Z" fill="white"/>
<path opacity="0.2" d="M224.96 160.79V165.141H227.019C227.428 165.141 227.822 164.979 228.112 164.69C228.402 164.401 228.566 164.008 228.568 163.599V160.768L224.96 160.79Z" fill="white"/>
<path opacity="0.2" d="M202.204 138.034V133.675H200.152C199.741 133.675 199.347 133.839 199.056 134.129C198.766 134.42 198.602 134.814 198.602 135.225V138.055L202.204 138.034Z" fill="white"/>
<path opacity="0.2" d="M228.568 142.867H224.96V146.992H228.568V142.867Z" fill="white"/>
<path opacity="0.2" d="M228.568 138.388H224.96V142.513H228.568V138.388Z" fill="white"/>
<path opacity="0.2" d="M206.683 147.346H202.558V151.471H206.683V147.346Z" fill="white"/>
<path opacity="0.2" d="M206.683 156.303H202.558V160.429H206.683V156.303Z" fill="white"/>
<path opacity="0.2" d="M211.169 133.675H207.044V138.034H211.169V133.675Z" fill="white"/>
<path opacity="0.2" d="M206.683 151.825H202.558V155.95H206.683V151.825Z" fill="white"/>
<path opacity="0.2" d="M211.169 142.867H207.044V146.992H211.169V142.867Z" fill="white"/>
<path opacity="0.2" d="M211.169 138.388H207.044V142.513H211.169V138.388Z" fill="white"/>
<path opacity="0.2" d="M211.169 160.79H207.044V165.148H211.169V160.79Z" fill="white"/>
<path opacity="0.2" d="M206.683 160.79H202.558V165.148H206.683V160.79Z" fill="white"/>
<path opacity="0.2" d="M206.683 133.675H202.558V138.034H206.683V133.675Z" fill="white"/>
<path opacity="0.2" d="M211.169 147.346H207.044V151.471H211.169V147.346Z" fill="white"/>
<path opacity="0.2" d="M206.683 142.867H202.558V146.992H206.683V142.867Z" fill="white"/>
<path opacity="0.2" d="M206.683 138.388H202.558V142.513H206.683V138.388Z" fill="white"/>
<path d="M220.912 144.664C220.851 144.341 220.763 144.024 220.65 143.716C220.208 142.455 219.436 141.336 218.416 140.475C217.395 139.613 216.162 139.04 214.845 138.816C213.528 138.591 212.176 138.723 210.927 139.198C209.678 139.673 208.579 140.473 207.744 141.515C207.348 142.006 207.018 142.546 206.761 143.121C206.323 144.088 206.096 145.138 206.096 146.199V152.624C206.095 153.237 206.171 153.848 206.322 154.443C206.432 154.897 206.591 155.338 206.796 155.759C206.975 156.152 207.188 156.528 207.433 156.884C207.624 157.139 207.815 157.379 208.02 157.591C208.272 157.871 208.544 158.131 208.834 158.37C209.071 158.563 209.319 158.743 209.577 158.907C210.023 159.191 210.497 159.428 210.992 159.615C211.233 159.7 211.473 159.778 211.7 159.841C212.01 159.918 212.324 159.977 212.641 160.018C212.875 160.048 213.112 160.065 213.348 160.068H213.539C213.925 160.068 214.311 160.04 214.693 159.983C214.933 159.941 215.174 159.891 215.4 159.834C216.27 159.607 217.092 159.226 217.827 158.709C218.094 158.524 218.347 158.321 218.584 158.101C219.235 157.506 219.776 156.802 220.183 156.021C220.396 155.618 220.569 155.197 220.7 154.761C220.897 154.126 221.004 153.466 221.018 152.801C221.018 152.801 221.018 152.653 221.018 152.582V146.157C221.034 145.657 220.998 145.157 220.912 144.664ZM219.235 156.374C218.834 156.981 218.337 157.519 217.764 157.966C217.555 158.132 217.335 158.284 217.106 158.419C216.499 158.792 215.838 159.067 215.146 159.233C214.919 159.283 214.686 159.325 214.438 159.353C214.154 159.39 213.868 159.409 213.582 159.41H213.263C213.016 159.41 212.782 159.41 212.556 159.339C212.26 159.291 211.966 159.225 211.678 159.141C211.431 159.07 211.19 158.978 210.971 158.886C210.47 158.672 209.995 158.401 209.556 158.08C209.319 157.902 209.094 157.708 208.884 157.499C208.626 157.256 208.389 156.991 208.176 156.707C207.971 156.436 207.786 156.15 207.624 155.851C207.38 155.403 207.19 154.928 207.058 154.436C206.893 153.844 206.809 153.232 206.81 152.617V146.192C206.812 144.701 207.31 143.252 208.225 142.074C208.835 141.278 209.613 140.626 210.504 140.164C211.463 139.663 212.529 139.404 213.61 139.407C215.151 139.407 216.645 139.931 217.849 140.893C219.052 141.855 219.893 143.197 220.233 144.699C220.341 145.185 220.396 145.681 220.396 146.178V152.66C220.389 153.078 220.347 153.494 220.268 153.905C220.158 154.456 219.98 154.99 219.738 155.497C219.594 155.803 219.426 156.096 219.235 156.374Z" fill="white"/>
<path d="M214.438 150.176C213.681 152.575 212.697 155.73 213.263 159.374C213.299 159.608 213.341 159.841 213.391 160.082C213.154 160.079 212.918 160.063 212.683 160.032C212.634 159.785 212.591 159.544 212.563 159.325C212.025 155.575 213.023 152.384 213.78 149.957C214.587 147.381 214.919 146.122 213.702 145.605C213.511 145.525 213.302 145.497 213.097 145.525C212.892 145.552 212.698 145.634 212.535 145.761C210.603 147.041 208.876 152.568 208.19 156.693C208.133 157.018 208.084 157.33 208.041 157.627C207.836 157.393 207.645 157.153 207.454 156.919C207.504 156.58 207.567 156.212 207.638 155.865C208.417 151.775 210.079 146.574 212.145 145.209C212.406 145.017 212.712 144.896 213.033 144.858C213.354 144.82 213.68 144.865 213.978 144.989C215.811 145.761 215.209 147.707 214.438 150.176Z" fill="white"/>
<path d="M213.207 150.006C212.499 152.277 211.459 155.603 211.664 159.141C211.664 159.389 211.664 159.636 211.721 159.891C211.473 159.827 211.233 159.749 211.013 159.665C211.013 159.403 210.978 159.148 210.971 158.886C210.829 155.348 211.855 152.051 212.563 149.794C212.837 149.049 213.036 148.279 213.157 147.494C212.301 148.258 209.619 154.485 209.57 158.108C209.556 158.401 209.568 158.694 209.605 158.985C209.347 158.82 209.099 158.641 208.862 158.447C208.862 158.157 208.862 157.846 208.898 157.528C209.195 153.777 211.452 148.124 212.683 147.006C212.773 146.898 212.894 146.82 213.028 146.781C213.163 146.742 213.307 146.744 213.44 146.787C214.141 147.034 213.808 148.089 213.207 150.006Z" fill="white"/>
<path d="M215.146 159.205C215.232 159.427 215.331 159.644 215.443 159.856C215.216 159.912 214.976 159.962 214.735 160.004C214.621 159.775 214.522 159.538 214.438 159.297C213.858 157.782 213.554 155.483 214.608 152.341C216.667 146.213 216.306 144.756 214.778 143.949C214.387 143.721 213.946 143.593 213.494 143.578C213.041 143.563 212.593 143.662 212.188 143.864C210.065 144.912 208.233 148.697 207.051 154.386C206.959 154.818 206.874 155.256 206.796 155.709C206.591 155.289 206.432 154.848 206.322 154.393C206.471 153.686 206.633 152.978 206.803 152.27C208.034 147.402 209.796 144.239 211.877 143.213C212.379 142.955 212.939 142.827 213.504 142.842C214.069 142.857 214.622 143.014 215.11 143.298C217.233 144.43 217.282 146.589 215.28 152.539C214.254 155.596 214.572 157.775 215.139 159.155L215.146 159.205Z" fill="white"/>
<path d="M218.641 158.15C218.403 158.371 218.15 158.574 217.884 158.759L217.594 158.667C217.423 158.606 217.261 158.522 217.113 158.419C216.313 157.891 215.752 157.07 215.549 156.134C215.181 154.811 215.782 152.9 216.426 150.884C217.07 148.867 217.735 146.758 217.417 145.223C217.331 144.671 217.118 144.147 216.795 143.691C216.472 143.236 216.048 142.862 215.556 142.598C214.318 141.982 212.669 142.088 210.921 142.902C209.174 143.716 207.674 146.32 206.81 148.336C206.506 149.044 206.266 149.695 206.103 150.169V148.181C206.308 147.699 206.541 147.176 206.81 146.652C207.723 144.862 209.004 143.015 210.617 142.265C212.57 141.352 214.438 141.246 215.874 141.968C216.463 142.278 216.972 142.721 217.36 143.261C217.748 143.801 218.005 144.425 218.11 145.081C218.464 146.78 217.771 148.966 217.099 151.082C216.49 152.999 215.917 154.803 216.228 155.929C216.314 156.361 216.497 156.769 216.764 157.119C217.032 157.47 217.376 157.755 217.771 157.952L217.849 157.988C218.1 158.092 218.369 158.147 218.641 158.15Z" fill="white"/>
<path d="M220.764 154.81C220.633 155.246 220.46 155.668 220.247 156.07C219.936 156.232 219.598 156.335 219.249 156.374H219.051H218.874C218.485 156.343 218.116 156.189 217.82 155.935C217.524 155.68 217.316 155.339 217.226 154.959C216.915 153.905 217.424 151.924 217.933 149.829C218.336 148.504 218.602 147.14 218.726 145.761C218.726 143.581 218.16 141.246 213.978 140.503C211.855 140.121 208.799 141.48 207.008 144.381C206.655 144.947 207.115 142.775 206.725 143.093C206.98 142.513 207.376 142.541 207.766 142.053C208.551 141.543 210.737 139.385 214.098 139.803C218.917 140.397 219.433 143.61 219.433 145.761C219.316 147.201 219.04 148.625 218.613 150.006C218.146 151.824 217.622 153.891 217.905 154.761C217.957 155.001 218.083 155.218 218.266 155.38C218.45 155.543 218.68 155.644 218.924 155.667C219.193 155.684 219.463 155.635 219.709 155.525C220.106 155.362 220.465 155.119 220.764 154.81Z" fill="white"/>
<path d="M221.075 150.961V152.624C221.075 152.695 221.075 152.773 221.075 152.843C220.885 153.26 220.602 153.628 220.247 153.919C220.002 154.096 219.707 154.19 219.405 154.188H219.2C219.093 154.175 218.99 154.135 218.903 154.072C218.815 154.009 218.744 153.924 218.698 153.827C218.379 153.24 218.775 152.051 219.037 151.393C219.957 149.292 220.36 147.002 220.212 144.713C220.212 144.31 220.254 144.062 220.254 144.048C220.263 143.956 220.307 143.87 220.376 143.808C220.446 143.747 220.536 143.713 220.629 143.716C220.742 144.024 220.83 144.341 220.891 144.664C220.891 145.187 220.806 145.711 220.757 146.235C220.658 147.239 220.537 148.244 220.346 149.242C220.297 149.511 220.523 149.405 220.467 149.673C220.293 150.205 220.085 150.726 219.844 151.23C219.674 151.619 219.483 152.001 219.349 152.405C219.264 152.645 218.952 153.777 219.589 153.53C219.828 153.406 220.027 153.217 220.162 152.985C220.226 152.886 220.29 152.787 220.346 152.681C220.552 152.297 220.728 151.897 220.87 151.485C220.955 151.315 221.018 151.138 221.075 150.961Z" fill="white"/>
<path d="M168.905 30.9421V48.9853C168.905 49.248 168.801 49.5 168.615 49.6858C168.43 49.8716 168.178 49.9759 167.915 49.9759H149.567C149.505 49.8392 149.406 49.7226 149.281 49.6389C149.156 49.5552 149.01 49.5078 148.86 49.5018C148.71 49.4945 148.561 49.528 148.429 49.5986C148.297 49.6693 148.186 49.7745 148.109 49.9031C148.032 50.0316 147.992 50.1786 147.992 50.3285C147.992 50.4784 148.032 50.6255 148.109 50.754C148.186 50.8826 148.297 50.9879 148.429 51.0586C148.561 51.1293 148.71 51.1629 148.859 51.1556C149.009 51.1484 149.154 51.1006 149.279 51.0175C149.403 50.9343 149.503 50.8189 149.567 50.6835H167.915C168.365 50.6816 168.796 50.5021 169.114 50.1841C169.432 49.866 169.611 49.4351 169.613 48.9853V30.9421H168.905Z" fill="#407BFF"/>
<path opacity="0.4" d="M168.905 30.9421V48.9853C168.905 49.248 168.801 49.5 168.615 49.6858C168.43 49.8716 168.178 49.9759 167.915 49.9759H149.567C149.505 49.8392 149.406 49.7226 149.281 49.6389C149.156 49.5552 149.01 49.5078 148.86 49.5018C148.71 49.4945 148.561 49.528 148.429 49.5986C148.297 49.6693 148.186 49.7745 148.109 49.9031C148.032 50.0316 147.992 50.1786 147.992 50.3285C147.992 50.4784 148.032 50.6255 148.109 50.754C148.186 50.8826 148.297 50.9879 148.429 51.0586C148.561 51.1293 148.71 51.1629 148.859 51.1556C149.009 51.1484 149.154 51.1006 149.279 51.0175C149.403 50.9343 149.503 50.8189 149.567 50.6835H167.915C168.365 50.6816 168.796 50.5021 169.114 50.1841C169.432 49.866 169.611 49.4351 169.613 48.9853V30.9421H168.905Z" fill="white"/>
<path d="M185.342 34.657V7.79034C185.342 6.73914 184.49 5.88696 183.439 5.88696L155.072 5.88696C154.021 5.88696 153.169 6.73914 153.169 7.79034V34.657C153.169 35.7082 154.021 36.5604 155.072 36.5604H183.439C184.49 36.5604 185.342 35.7082 185.342 34.657Z" fill="#407BFF"/>
<path opacity="0.4" d="M185.342 34.657V7.79034C185.342 6.73914 184.49 5.88696 183.439 5.88696L155.072 5.88696C154.021 5.88696 153.169 6.73914 153.169 7.79034V34.657C153.169 35.7082 154.021 36.5604 155.072 36.5604H183.439C184.49 36.5604 185.342 35.7082 185.342 34.657Z" fill="white"/>
<path opacity="0.2" d="M166.839 19.1611H162.714V23.2863H166.839V19.1611Z" fill="white"/>
<path opacity="0.2" d="M180.276 23.6401H176.151V27.7653H180.276V23.6401Z" fill="white"/>
<path opacity="0.2" d="M162.36 14.675H158.235V18.8002H162.36V14.675Z" fill="white"/>
<path opacity="0.2" d="M175.797 23.6401H171.672V27.7653H175.797V23.6401Z" fill="white"/>
<path opacity="0.2" d="M171.318 23.6401H167.193V27.7653H171.318V23.6401Z" fill="white"/>
<path opacity="0.2" d="M175.797 19.1611H171.672V23.2863H175.797V19.1611Z" fill="white"/>
<path opacity="0.2" d="M184.996 19.1611H180.637V23.2863H184.996V19.1611Z" fill="white"/>
<path opacity="0.2" d="M166.839 14.675H162.714V18.8002H166.839V14.675Z" fill="white"/>
<path opacity="0.2" d="M180.276 19.1611H176.151V23.2863H180.276V19.1611Z" fill="white"/>
<path opacity="0.2" d="M162.36 19.1611H158.235V23.2863H162.36V19.1611Z" fill="white"/>
<path opacity="0.2" d="M162.36 23.6401H158.235V27.7653H162.36V23.6401Z" fill="white"/>
<path opacity="0.2" d="M171.318 19.1611H167.193V23.2863H171.318V19.1611Z" fill="white"/>
<path opacity="0.2" d="M184.996 23.6401H180.637V27.7653H184.996V23.6401Z" fill="white"/>
<path opacity="0.2" d="M166.839 6.24072H162.714V9.84936H166.839V6.24072Z" fill="white"/>
<path opacity="0.2" d="M180.276 6.24072H176.151V9.84936H180.276V6.24072Z" fill="white"/>
<path opacity="0.2" d="M171.318 6.24072H167.193V9.84936H171.318V6.24072Z" fill="white"/>
<path opacity="0.2" d="M175.797 6.24072H171.672V9.84936H175.797V6.24072Z" fill="white"/>
<path opacity="0.2" d="M166.839 23.6401H162.714V27.7653H166.839V23.6401Z" fill="white"/>
<path opacity="0.2" d="M180.637 32.5979V36.2065H183.467C183.877 36.2047 184.269 36.0406 184.559 35.7502C184.848 35.4598 185.01 35.0667 185.01 34.6569V32.5979H180.637Z" fill="white"/>
<path opacity="0.2" d="M180.276 28.1189H176.151V32.2441H180.276V28.1189Z" fill="white"/>
<path opacity="0.2" d="M162.36 6.24072H158.235V9.84936H162.36V6.24072Z" fill="white"/>
<path opacity="0.2" d="M175.797 28.1189H171.672V32.2441H175.797V28.1189Z" fill="white"/>
<path opacity="0.2" d="M171.318 28.1189H167.193V32.2441H171.318V28.1189Z" fill="white"/>
<path opacity="0.2" d="M166.839 28.1189H162.714V32.2441H166.839V28.1189Z" fill="white"/>
<path opacity="0.2" d="M162.36 28.1189H158.235V32.2441H162.36V28.1189Z" fill="white"/>
<path opacity="0.2" d="M162.36 32.5979H158.235V36.2065H162.36V32.5979Z" fill="white"/>
<path opacity="0.2" d="M184.996 28.1189H180.637V32.2441H184.996V28.1189Z" fill="white"/>
<path opacity="0.2" d="M157.881 19.1611H153.523V23.2863H157.881V19.1611Z" fill="white"/>
<path opacity="0.2" d="M157.881 23.6401H153.523V27.7653H157.881V23.6401Z" fill="white"/>
<path opacity="0.2" d="M171.318 32.5979H167.193V36.2065H171.318V32.5979Z" fill="white"/>
<path opacity="0.2" d="M157.881 28.1189H153.523V32.2441H157.881V28.1189Z" fill="white"/>
<path opacity="0.2" d="M166.839 32.5979H162.714V36.2065H166.839V32.5979Z" fill="white"/>
<path opacity="0.2" d="M157.881 9.84229V6.24072H155.051C154.649 6.25175 154.267 6.4189 153.985 6.70679C153.704 6.99469 153.546 7.38074 153.544 7.78324V9.84229H157.881Z" fill="white"/>
<path opacity="0.2" d="M157.881 32.5979H153.544V34.6711C153.544 35.0821 153.707 35.4762 153.998 35.7668C154.288 36.0574 154.683 36.2207 155.094 36.2207H157.924L157.881 32.5979Z" fill="white"/>
<path opacity="0.2" d="M180.637 9.84229H184.989V7.78324C184.987 7.37471 184.824 6.98344 184.535 6.69457C184.246 6.40569 183.855 6.24258 183.446 6.24072H180.616L180.637 9.84229Z" fill="white"/>
<path opacity="0.2" d="M175.797 32.5979H171.672V36.2065H175.797V32.5979Z" fill="white"/>
<path opacity="0.2" d="M180.276 32.5979H176.151V36.2065H180.276V32.5979Z" fill="white"/>
<path opacity="0.2" d="M171.318 10.196H167.193V14.3212H171.318V10.196Z" fill="white"/>
<path opacity="0.2" d="M162.36 10.196H158.235V14.3212H162.36V10.196Z" fill="white"/>
<path opacity="0.2" d="M184.996 14.675H180.637V18.8002H184.996V14.675Z" fill="white"/>
<path opacity="0.2" d="M166.839 10.196H162.714V14.3212H166.839V10.196Z" fill="white"/>
<path opacity="0.2" d="M175.797 14.675H171.672V18.8002H175.797V14.675Z" fill="white"/>
<path opacity="0.2" d="M180.276 14.675H176.151V18.8002H180.276V14.675Z" fill="white"/>
<path opacity="0.2" d="M157.881 14.675H153.523V18.8002H157.881V14.675Z" fill="white"/>
<path opacity="0.2" d="M157.881 10.196H153.523V14.3212H157.881V10.196Z" fill="white"/>
<path opacity="0.2" d="M184.996 10.196H180.637V14.3212H184.996V10.196Z" fill="white"/>
<path opacity="0.2" d="M171.318 14.675H167.193V18.8002H171.318V14.675Z" fill="white"/>
<path opacity="0.2" d="M175.797 10.196H171.672V14.3212H175.797V10.196Z" fill="white"/>
<path opacity="0.2" d="M180.276 10.196H176.151V14.3212H180.276V10.196Z" fill="white"/>
<path d="M159.912 21.0927C159.912 21.0927 164.087 26.0457 169.245 26.0457C174.403 26.0457 178.571 21.0927 178.571 21.0927C178.571 21.0927 174.396 16.1396 169.245 16.1396C164.094 16.1396 159.912 21.0927 159.912 21.0927Z" stroke="white" stroke-linecap="round" stroke-linejoin="round"/>
<path d="M172.507 20.3852C172.508 21.0296 172.319 21.6598 171.961 22.1962C171.604 22.7325 171.096 23.1508 170.501 23.398C169.906 23.6453 169.251 23.7103 168.619 23.5849C167.987 23.4596 167.406 23.1494 166.951 22.6938C166.495 22.2382 166.185 21.6576 166.06 21.0256C165.934 20.3935 165.999 19.7385 166.246 19.1435C166.494 18.5484 166.912 18.0402 167.448 17.6831C167.985 17.3259 168.615 17.1361 169.259 17.1375C170.121 17.1375 170.947 17.4796 171.556 18.0887C172.165 18.6978 172.507 19.5239 172.507 20.3852Z" stroke="white" stroke-miterlimit="10"/>
<path d="M169.62 18.9559C169.619 18.7471 169.679 18.5426 169.794 18.3683C169.909 18.1939 170.074 18.0577 170.266 17.9768C170.459 17.8959 170.671 17.8741 170.876 17.9139C171.081 17.9538 171.269 18.0537 171.417 18.2008C171.566 18.348 171.667 18.5358 171.708 18.7405C171.749 18.9452 171.729 19.1576 171.649 19.3506C171.57 19.5437 171.434 19.7088 171.261 19.8249C171.087 19.9411 170.883 20.0031 170.674 20.0031C170.396 20.0031 170.129 19.893 169.931 19.6968C169.734 19.5006 169.622 19.2343 169.62 18.9559Z" stroke="white" stroke-miterlimit="10"/>
<path d="M169.259 16.1327V12.8071" stroke="white" stroke-linecap="round" stroke-linejoin="round"/>
<path d="M172.153 16.3733L173.342 13.6704" stroke="white" stroke-linecap="round" stroke-linejoin="round"/>
<path d="M174.934 17.6045L176.597 15.6304" stroke="white" stroke-linecap="round" stroke-linejoin="round"/>
<path d="M177.163 19.1258L178.769 18.0574" stroke="white" stroke-linecap="round" stroke-linejoin="round"/>
<path d="M166.358 16.3733L165.169 13.6704" stroke="white" stroke-linecap="round" stroke-linejoin="round"/>
<path d="M163.577 17.6045L161.915 15.6304" stroke="white" stroke-linecap="round" stroke-linejoin="round"/>
<path d="M161.349 19.1258L159.742 18.0574" stroke="white" stroke-linecap="round" stroke-linejoin="round"/>
<path d="M121.165 51.094C121.017 51.0987 120.872 51.144 120.747 51.2251C120.623 51.3062 120.522 51.4199 120.458 51.5539H101.643C101.194 51.5558 100.763 51.7353 100.445 52.0534C100.127 52.3714 99.9471 52.8023 99.9452 53.2521V72.5619C99.9452 72.8246 99.8408 73.0765 99.6551 73.2623C99.4693 73.4481 99.2173 73.5525 98.9546 73.5525H91.3977V74.26H98.9546C99.4044 74.2582 99.8353 74.0787 100.153 73.7606C100.471 73.4425 100.651 73.0117 100.653 72.5619V53.2521C100.653 52.9894 100.757 52.7374 100.943 52.5517C101.129 52.3659 101.381 52.2615 101.643 52.2615H120.415C120.477 52.3975 120.573 52.5144 120.695 52.5999C120.817 52.6854 120.96 52.7364 121.109 52.7474C121.258 52.7585 121.407 52.7292 121.54 52.6626C121.673 52.5961 121.786 52.4947 121.867 52.3693C121.947 52.2439 121.993 52.0991 121.998 51.9501C122.003 51.8011 121.968 51.6535 121.896 51.5229C121.824 51.3923 121.718 51.2835 121.59 51.208C121.461 51.1325 121.314 51.0931 121.165 51.094Z" fill="#407BFF"/>
<path opacity="0.4" d="M121.165 51.094C121.017 51.0987 120.872 51.144 120.747 51.2251C120.623 51.3062 120.522 51.4199 120.458 51.5539H101.643C101.194 51.5558 100.763 51.7353 100.445 52.0534C100.127 52.3714 99.9471 52.8023 99.9452 53.2521V72.5619C99.9452 72.8246 99.8408 73.0765 99.6551 73.2623C99.4693 73.4481 99.2173 73.5525 98.9546 73.5525H91.3977V74.26H98.9546C99.4044 74.2582 99.8353 74.0787 100.153 73.7606C100.471 73.4425 100.651 73.0117 100.653 72.5619V53.2521C100.653 52.9894 100.757 52.7374 100.943 52.5517C101.129 52.3659 101.381 52.2615 101.643 52.2615H120.415C120.477 52.3975 120.573 52.5144 120.695 52.5999C120.817 52.6854 120.96 52.7364 121.109 52.7474C121.258 52.7585 121.407 52.7292 121.54 52.6626C121.673 52.5961 121.786 52.4947 121.867 52.3693C121.947 52.2439 121.993 52.0991 121.998 51.9501C122.003 51.8011 121.968 51.6535 121.896 51.5229C121.824 51.3923 121.718 51.2835 121.59 51.208C121.461 51.1325 121.314 51.0931 121.165 51.094Z" fill="white"/>
<path d="M89.4943 57.8159H62.6276C61.5764 57.8159 60.7243 58.6681 60.7243 59.7193V88.086C60.7243 89.1372 61.5764 89.9894 62.6276 89.9894H89.4943C90.5455 89.9894 91.3976 89.1372 91.3976 88.086V59.7193C91.3976 58.6681 90.5455 57.8159 89.4943 57.8159Z" fill="#407BFF"/>
<path opacity="0.4" d="M89.4943 57.8159H62.6276C61.5764 57.8159 60.7243 58.6681 60.7243 59.7193V88.086C60.7243 89.1372 61.5764 89.9894 62.6276 89.9894H89.4943C90.5455 89.9894 91.3976 89.1372 91.3976 88.086V59.7193C91.3976 58.6681 90.5455 57.8159 89.4943 57.8159Z" fill="white"/>
<path opacity="0.2" d="M78.1236 76.3191H73.9984V80.4443H78.1236V76.3191Z" fill="white"/>
<path opacity="0.2" d="M82.6024 62.8823H78.4773V67.0075H82.6024V62.8823Z" fill="white"/>
<path opacity="0.2" d="M73.6375 80.8052H69.5124V84.9303H73.6375V80.8052Z" fill="white"/>
<path opacity="0.2" d="M82.6024 67.3611H78.4773V71.4863H82.6024V67.3611Z" fill="white"/>
<path opacity="0.2" d="M82.6024 71.8401H78.4773V75.9653H82.6024V71.8401Z" fill="white"/>
<path opacity="0.2" d="M78.1236 67.3611H73.9984V71.4863H78.1236V67.3611Z" fill="white"/>
<path opacity="0.2" d="M78.1236 58.1697H73.9984V62.5283H78.1236V58.1697Z" fill="white"/>
<path opacity="0.2" d="M73.6375 76.3191H69.5124V80.4443H73.6375V76.3191Z" fill="white"/>
<path opacity="0.2" d="M78.1236 62.8823H73.9984V67.0075H78.1236V62.8823Z" fill="white"/>
<path opacity="0.2" d="M78.1236 80.8052H73.9984V84.9303H78.1236V80.8052Z" fill="white"/>
<path opacity="0.2" d="M82.6024 80.8052H78.4773V84.9303H82.6024V80.8052Z" fill="white"/>
<path opacity="0.2" d="M78.1236 71.8401H73.9984V75.9653H78.1236V71.8401Z" fill="white"/>
<path opacity="0.2" d="M82.6024 58.1697H78.4773V62.5283H82.6024V58.1697Z" fill="white"/>
<path opacity="0.2" d="M64.6866 76.3191H61.078V80.4443H64.6866V76.3191Z" fill="white"/>
<path opacity="0.2" d="M64.6866 62.8823H61.078V67.0075H64.6866V62.8823Z" fill="white"/>
<path opacity="0.2" d="M64.6866 71.8401H61.078V75.9653H64.6866V71.8401Z" fill="white"/>
<path opacity="0.2" d="M64.6866 67.3611H61.078V71.4863H64.6866V67.3611Z" fill="white"/>
<path opacity="0.2" d="M82.6024 76.3191H78.4773V80.4443H82.6024V76.3191Z" fill="white"/>
<path opacity="0.2" d="M87.4353 62.5283H91.0439V59.698C91.0439 59.2871 90.8806 58.8929 90.59 58.6023C90.2994 58.3117 89.9053 58.1484 89.4943 58.1484H87.4353V62.5283Z" fill="white"/>
<path opacity="0.2" d="M87.0814 62.8823H82.9563V67.0075H87.0814V62.8823Z" fill="white"/>
<path opacity="0.2" d="M64.6866 80.8052H61.078V84.9303H64.6866V80.8052Z" fill="white"/>
<path opacity="0.2" d="M87.0814 67.3611H82.9563V71.4863H87.0814V67.3611Z" fill="white"/>
<path opacity="0.2" d="M87.0814 71.8401H82.9563V75.9653H87.0814V71.8401Z" fill="white"/>
<path opacity="0.2" d="M87.0814 76.3191H82.9563V80.4443H87.0814V76.3191Z" fill="white"/>
<path opacity="0.2" d="M87.0814 80.8052H82.9563V84.9303H87.0814V80.8052Z" fill="white"/>
<path opacity="0.2" d="M91.0439 80.8052H87.4353V84.9303H91.0439V80.8052Z" fill="white"/>
<path opacity="0.2" d="M87.0814 58.1697H82.9563V62.5283H87.0814V58.1697Z" fill="white"/>
<path opacity="0.2" d="M78.1236 85.2842H73.9984V89.6428H78.1236V85.2842Z" fill="white"/>
<path opacity="0.2" d="M82.6024 85.2842H78.4773V89.6428H82.6024V85.2842Z" fill="white"/>
<path opacity="0.2" d="M91.0439 71.8401H87.4353V75.9653H91.0439V71.8401Z" fill="white"/>
<path opacity="0.2" d="M87.0814 85.2842H82.9563V89.6428H87.0814V85.2842Z" fill="white"/>
<path opacity="0.2" d="M91.0439 76.3191H87.4353V80.4443H91.0439V76.3191Z" fill="white"/>
<path opacity="0.2" d="M64.6796 85.2842H61.078V88.1145C61.0798 88.523 61.243 88.9143 61.5318 89.2032C61.8207 89.492 62.212 89.6551 62.6205 89.657H64.6796V85.2842Z" fill="white"/>
<path opacity="0.2" d="M87.4353 85.2842V89.6358H89.4943C89.9041 89.6358 90.2971 89.4735 90.5875 89.1844C90.878 88.8953 91.042 88.503 91.0439 88.0932V85.2629L87.4353 85.2842Z" fill="white"/>
<path opacity="0.2" d="M64.6796 62.5283V58.1697H62.6205C62.2108 58.1715 61.8184 58.3356 61.5293 58.626C61.2403 58.9164 61.078 59.3095 61.078 59.7193V62.5496L64.6796 62.5283Z" fill="white"/>
<path opacity="0.2" d="M91.0439 67.3611H87.4353V71.4863H91.0439V67.3611Z" fill="white"/>
<path opacity="0.2" d="M91.0439 62.8823H87.4353V67.0075H91.0439V62.8823Z" fill="white"/>
<path opacity="0.2" d="M69.1585 71.8401H65.0334V75.9653H69.1585V71.8401Z" fill="white"/>
<path opacity="0.2" d="M69.1585 80.8052H65.0334V84.9303H69.1585V80.8052Z" fill="white"/>
<path opacity="0.2" d="M73.6375 58.1697H69.5124V62.5283H73.6375V58.1697Z" fill="white"/>
<path opacity="0.2" d="M69.1585 76.3191H65.0334V80.4443H69.1585V76.3191Z" fill="white"/>
<path opacity="0.2" d="M73.6375 67.3611H69.5124V71.4863H73.6375V67.3611Z" fill="white"/>
<path opacity="0.2" d="M73.6375 62.8823H69.5124V67.0075H73.6375V62.8823Z" fill="white"/>
<path opacity="0.2" d="M73.6375 85.2842H69.5124V89.6428H73.6375V85.2842Z" fill="white"/>
<path opacity="0.2" d="M69.1585 85.2842H65.0334V89.6428H69.1585V85.2842Z" fill="white"/>
<path opacity="0.2" d="M69.1585 58.1697H65.0334V62.5283H69.1585V58.1697Z" fill="white"/>
<path opacity="0.2" d="M73.6375 71.8401H69.5124V75.9653H73.6375V71.8401Z" fill="white"/>
<path opacity="0.2" d="M69.1585 67.3611H65.0334V71.4863H69.1585V67.3611Z" fill="white"/>
<path opacity="0.2" d="M69.1585 62.8823H65.0334V67.0075H69.1585V62.8823Z" fill="white"/>
<path d="M76.0574 84.6119C74.0719 84.61 72.1681 83.821 70.7635 82.4176C69.3589 81.0143 68.568 79.1113 68.5642 77.1258V70.6868C68.5642 68.6995 69.3537 66.7936 70.7589 65.3883C72.1642 63.9831 74.0701 63.1936 76.0574 63.1936C78.0448 63.1936 79.9507 63.9831 81.356 65.3883C82.7612 66.7936 83.5507 68.6995 83.5507 70.6868V77.1258C83.5469 79.1113 82.756 81.0143 81.3514 82.4176C79.9467 83.821 78.043 84.61 76.0574 84.6119ZM76.0574 63.9083C74.2596 63.9101 72.5358 64.6247 71.2638 65.8953C69.9919 67.1659 69.2755 68.889 69.2718 70.6868V77.1258C69.2718 78.9254 69.9867 80.6514 71.2593 81.924C72.5318 83.1965 74.2578 83.9114 76.0574 83.9114C77.8571 83.9114 79.5831 83.1965 80.8556 81.924C82.1282 80.6514 82.8431 78.9254 82.8431 77.1258V70.6868C82.8394 68.889 82.123 67.1659 80.8511 65.8953C79.5791 64.6247 77.8553 63.9101 76.0574 63.9083Z" fill="white"/>
<path d="M79.4397 73.029C79.8773 73.029 80.2321 72.5474 80.2321 71.9534C80.2321 71.3595 79.8773 70.8779 79.4397 70.8779C79.002 70.8779 78.6472 71.3595 78.6472 71.9534C78.6472 72.5474 79.002 73.029 79.4397 73.029Z" fill="white"/>
<path d="M73.4677 71.9534C73.4677 72.5407 73.1139 73.0219 72.6752 73.0219C72.2365 73.0219 71.8827 72.5407 71.8827 71.9534C71.8827 71.3662 72.2365 70.8779 72.6752 70.8779C73.1139 70.8779 73.4677 71.3591 73.4677 71.9534Z" fill="white"/>
<path d="M76.0998 73.0217L74.6068 76.8497H76.0998V73.0217Z" fill="white"/>
<path d="M75.7885 79.5031C75.1136 79.5386 74.4388 79.4325 73.8073 79.1917L74.1115 78.5549C74.1115 78.5549 75.3781 79.1139 78.081 78.5549L78.2296 79.2625C77.4267 79.4287 76.6084 79.5093 75.7885 79.5031Z" fill="white"/>
<path d="M281.601 10.8188H204.511C202.506 10.8188 200.881 12.444 200.881 14.4487V91.5391C200.881 93.5438 202.506 95.1689 204.511 95.1689H281.601C283.606 95.1689 285.231 93.5438 285.231 91.5391V14.4487C285.231 12.444 283.606 10.8188 281.601 10.8188Z" fill="#407BFF"/>
<path opacity="0.5" d="M272.877 62.8115H213.235C211.426 62.8115 209.959 64.2783 209.959 66.0876V76.9984C209.959 78.8077 211.426 80.2745 213.235 80.2745H272.877C274.686 80.2745 276.153 78.8077 276.153 76.9984V66.0876C276.153 64.2783 274.686 62.8115 272.877 62.8115Z" fill="white"/>
<path d="M221.79 71.5501L223.721 72.5973L222.886 74.0478L220.898 72.8803L220.934 75.0031H219.271V72.8379L217.318 74.0054L216.518 72.5973L218.45 71.5501L216.518 70.4887L217.367 69.0311L219.32 70.2057V68.0405H220.983L220.948 70.2057L222.901 69.0311L223.771 70.4887L221.79 71.5501Z" fill="white"/>
<path d="M233.26 71.5501L235.191 72.5973L234.328 74.0478L232.375 72.8803V75.003H230.712V72.8379L228.766 74.0054L227.91 72.5548L229.842 71.5076L227.91 70.4463L228.766 68.9886L230.712 70.1632V67.998H232.375V70.1632L234.328 68.9886L235.191 70.4463L233.26 71.5501Z" fill="white"/>
<path d="M244.736 71.5501L246.668 72.5973L245.798 74.0478L243.852 72.8803L243.887 75.003H242.217V72.8379L240.264 74.0054L239.415 72.5548L241.347 71.5076L239.415 70.4463L240.264 68.9886L242.217 70.1632V67.998H243.887L243.852 70.1632L245.798 68.9886L246.668 70.4463L244.736 71.5501Z" fill="white"/>
<path d="M256.213 71.5501L258.145 72.5973L257.275 74.0478L255.322 72.8803L255.357 75.003H253.694V72.8379L251.749 74.0054L250.899 72.5548L252.831 71.5076L250.899 70.4463L251.749 68.9886L253.694 70.1632V67.998H255.357L255.322 70.1632L257.275 68.9886L258.145 70.4463L256.213 71.5501Z" fill="white"/>
<path d="M267.683 71.5501L269.586 72.5973L268.723 74.0478L266.799 72.8803L266.834 75.0031H265.171V72.8379L263.218 74.0478L262.362 72.5973L264.294 71.5501L262.362 70.4887L263.218 69.0311L265.164 70.2057V68.0405H266.827L266.791 70.2057L268.744 69.0311L269.608 70.4887L267.683 71.5501Z" fill="white"/>
<path opacity="0.5" d="M256.425 50.2928C263.812 42.9066 263.812 30.9313 256.425 23.5451C249.039 16.1589 237.064 16.1589 229.678 23.5451C222.292 30.9313 222.292 42.9066 229.678 50.2928C237.064 57.679 249.039 57.679 256.425 50.2928Z" fill="white"/>
<path d="M250.482 35.8599H235.694C235.427 35.8589 235.162 35.9108 234.915 36.0126C234.669 36.1143 234.444 36.2638 234.256 36.4526C234.067 36.6413 233.917 36.8656 233.816 37.1124C233.714 37.3592 233.662 37.6237 233.663 37.8906V46.8981C233.663 47.4366 233.877 47.9532 234.258 48.334C234.639 48.7148 235.155 48.9288 235.694 48.9288H250.482C251.021 48.9288 251.537 48.7148 251.918 48.334C252.299 47.9532 252.513 47.4366 252.513 46.8981V37.8906C252.514 37.6237 252.462 37.3592 252.36 37.1124C252.258 36.8656 252.109 36.6413 251.92 36.4526C251.731 36.2638 251.507 36.1143 251.26 36.0126C251.013 35.9108 250.749 35.8589 250.482 35.8599ZM244.446 45.8862H241.729L242.295 42.1998C241.931 42.0208 241.638 41.7237 241.464 41.3569C241.29 40.9901 241.245 40.5753 241.337 40.1799C241.429 39.7845 241.652 39.4318 241.97 39.1793C242.288 38.9269 242.682 38.7894 243.088 38.7894C243.494 38.7894 243.888 38.9269 244.206 39.1793C244.523 39.4318 244.746 39.7845 244.838 40.1799C244.93 40.5753 244.886 40.9901 244.712 41.3569C244.538 41.7237 244.245 42.0208 243.88 42.1998L244.446 45.8862Z" fill="#407BFF"/>
<path d="M238.793 34.4166L238.517 33.0015C238.279 31.8164 238.523 30.5855 239.193 29.5797C239.863 28.5739 240.905 27.8754 242.09 27.638C243.275 27.4006 244.506 27.6437 245.512 28.3139C246.518 28.984 247.216 30.0262 247.453 31.2113L247.729 32.5911L250.34 32.0675L250.057 30.6523C249.888 29.7077 249.531 28.8065 249.009 28.0013C248.487 27.1962 247.809 26.5032 247.016 25.9631C246.223 25.423 245.33 25.0464 244.389 24.8556C243.449 24.6647 242.479 24.6634 241.538 24.8516C240.597 25.0398 239.703 25.4138 238.909 25.9517C238.114 26.4896 237.434 27.1806 236.91 27.9843C236.385 28.788 236.026 29.6883 235.854 30.6324C235.682 31.5764 235.699 32.5454 235.906 33.4826L236.182 34.8978L238.793 34.4166Z" fill="#407BFF"/>
<path opacity="0.2" d="M253.595 86.5648H232.51C232.262 86.5648 232.024 86.4664 231.849 86.2912C231.674 86.1161 231.576 85.8785 231.576 85.6308C231.577 85.3843 231.677 85.1485 231.852 84.9749C232.027 84.8013 232.263 84.7039 232.51 84.7039H253.595C253.842 84.7039 254.078 84.8013 254.253 84.9749C254.428 85.1485 254.527 85.3843 254.529 85.6308C254.529 85.8785 254.431 86.1161 254.256 86.2912C254.081 86.4664 253.843 86.5648 253.595 86.5648Z" fill="black"/>
<path d="M183.75 86.1756L190.996 80.0197C190.996 80.0197 197.166 73.4817 198.468 73.3401C199.77 73.1986 202.579 73.7576 203.322 74.6916C204.065 75.6256 198.496 81.6966 197.187 82.8146C195.878 83.9326 193.267 83.7486 193.267 83.7486L186.361 90.421L183.75 86.1756Z" fill="#EBB376"/>
<path d="M127.852 250.56H120.847C120.733 250.563 120.624 250.603 120.536 250.675C120.447 250.747 120.385 250.845 120.359 250.956L119.22 256.093C119.173 256.314 119.217 256.545 119.34 256.734C119.463 256.924 119.657 257.057 119.878 257.105H120.062C122.326 257.069 123.982 256.928 126.826 256.928C128.581 256.928 133.866 257.112 136.286 257.112C138.706 257.112 139.025 254.72 138.034 254.501C133.59 253.531 130.251 252.194 128.836 250.913C128.565 250.674 128.213 250.548 127.852 250.56Z" fill="#263238"/>
<path d="M157.556 250.383H150.551C150.437 250.383 150.326 250.423 150.237 250.495C150.148 250.567 150.087 250.667 150.063 250.779L148.924 255.909C148.877 256.13 148.921 256.361 149.044 256.55C149.167 256.74 149.361 256.873 149.582 256.921H149.766C152.037 256.885 153.686 256.744 156.53 256.744C158.285 256.744 163.57 256.928 165.99 256.928C168.41 256.928 168.729 254.536 167.738 254.317C163.294 253.347 159.955 252.01 158.54 250.729C158.268 250.493 157.916 250.369 157.556 250.383Z" fill="#263238"/>
<path d="M124.137 120.727H154.74C157.648 136.612 165.969 200.916 159.438 251.012L149.221 252.13C149.221 252.13 150.82 175.146 141.678 150.558C140.624 163.719 139.371 177.715 138.289 185.165C135.628 203.506 129.628 251.288 129.628 251.288L119.269 251.571C119.269 251.571 121.54 205.218 122.531 187.182C123.628 167.632 124.095 124.739 124.137 120.727Z" fill="#263238"/>
<path opacity="0.2" d="M124.137 120.727H154.74C157.648 136.612 165.969 200.916 159.438 251.012L149.221 252.13C149.221 252.13 150.82 175.146 141.678 150.558C140.624 163.719 139.371 177.715 138.289 185.165C135.628 203.506 129.628 251.288 129.628 251.288L119.269 251.571C119.269 251.571 121.54 205.218 122.531 187.182C123.628 167.632 124.095 124.739 124.137 120.727Z" fill="white"/>
<path opacity="0.2" d="M141.678 150.558C143.183 154.868 144.327 159.296 145.096 163.797C145.952 152.086 142.527 139.668 142.527 139.668L141.678 150.558Z" fill="black"/>
<path d="M151.945 67.7788C156.778 68.3661 166.295 90.3363 169.931 92.2963C173.568 94.2563 187.989 81.9374 187.989 81.9374L191.626 86.4164C191.626 86.4164 175.252 103.915 168.813 101.983C162.375 100.051 153.247 83.5082 150.48 78.3288C147.714 73.1493 151.945 67.7788 151.945 67.7788Z" fill="#407BFF"/>
<path opacity="0.5" d="M191.626 86.4161C191.626 86.4161 175.253 103.907 168.814 101.983C165.983 101.127 162.686 97.4968 159.615 93.2513C156.268 88.4723 153.22 83.4909 150.487 78.3356C149.891 77.1549 149.567 75.8551 149.54 74.5324C149.513 73.2097 149.784 71.8979 150.332 70.6938C150.745 69.6656 151.29 68.6952 151.952 67.8069C156.785 68.3942 166.302 90.3715 169.939 92.3315C173.576 94.2914 187.996 81.9726 187.996 81.9726L191.626 86.4161Z" fill="white"/>
<path opacity="0.2" d="M159.608 93.216C156.261 88.437 153.212 83.4556 150.48 78.3003C149.883 77.1195 149.56 75.8198 149.533 74.4971C149.506 73.1744 149.776 71.8625 150.325 70.6584C153.077 74.0477 158.674 82.1849 159.608 93.216Z" fill="black"/>
<path d="M151.945 67.7788C151.945 67.7788 132.48 66.8589 117.981 70.5171C117.981 70.5171 123.415 112.625 123.175 130.965L157.846 129.097C157.846 129.097 157.004 86.6993 151.945 67.7788Z" fill="#407BFF"/>
<path opacity="0.6" d="M123.175 130.965C123.288 122.439 122.17 108.776 120.946 96.5913C120.479 91.9425 119.998 87.506 119.531 83.6568C118.646 75.9088 117.953 70.5242 117.953 70.5242C132.451 66.866 151.917 67.7859 151.917 67.7859C156.976 86.7064 157.853 129.104 157.853 129.104L123.175 130.965Z" fill="white"/>
<path opacity="0.2" d="M120.946 96.5841C120.479 91.9353 119.998 87.4988 119.531 83.6496L121.76 81.9373C121.76 81.9373 123.727 89.6074 120.946 96.5841Z" fill="black"/>
<path d="M129.345 69.0594C132.14 71.5995 138.989 70.6585 138.989 70.6585C138.989 70.6585 143.235 69.491 142.364 68.1537C139.845 67.7362 138.628 66.5616 138.119 65.0615C137.839 64.1289 137.752 63.149 137.864 62.1817C137.904 61.6427 137.975 61.1064 138.076 60.5755L129.586 54.3064C130.725 58.4457 132.083 66.0592 129.345 69.0594Z" fill="#EBB376"/>
<path opacity="0.2" d="M131.567 58.29C131.906 63.3704 136.081 64.7714 138.126 65.0615C137.846 64.1289 137.759 63.149 137.871 62.1817L131.567 58.29Z" fill="black"/>
<path d="M143.942 41.1455C143.942 41.1455 146.306 48.7873 142.605 52.4172C138.904 56.0471 136.725 41.4922 136.725 41.4922L143.942 41.1455Z" fill="#263238"/>
<path d="M131.489 60.434C132.551 61.592 133.964 62.3689 135.511 62.6451C137.058 62.9212 138.653 62.6813 140.051 61.9624C141.878 61.0701 143.295 59.5135 144.013 57.6108C144.114 57.3465 144.201 57.0773 144.275 56.8041C145.598 51.7237 144.982 43.2682 139.47 40.8908C138.253 40.3613 136.92 40.1521 135.599 40.283C134.278 40.414 133.012 40.8806 131.922 41.6387C130.832 42.3967 129.955 43.4209 129.372 44.6139C128.79 45.807 128.522 47.1291 128.595 48.4547C128.814 54.1295 128.673 57.4834 131.489 60.434Z" fill="#EBB376"/>
<path d="M137.185 50.238C137.142 50.6909 137.411 51.08 137.716 51.08C138.02 51.08 138.267 50.7121 138.282 50.2522C138.296 49.7922 138.048 49.4102 137.751 49.4102C137.454 49.4102 137.199 49.7498 137.185 50.238Z" fill="#263238"/>
<path d="M142.414 50.3227C142.371 50.7756 142.647 51.1648 142.945 51.1648C143.242 51.1648 143.496 50.7968 143.511 50.3369C143.525 49.877 143.277 49.4949 142.98 49.4949C142.683 49.4949 142.428 49.884 142.414 50.3227Z" fill="#263238"/>
<path d="M140.751 50.5139C141.268 51.9414 141.983 53.2894 142.874 54.5188C142.55 54.7387 142.182 54.8856 141.796 54.9491C141.41 55.0126 141.015 54.9914 140.638 54.8867L140.751 50.5139Z" fill="#D58745"/>
<path d="M135.593 48.4903C135.642 48.4985 135.693 48.4936 135.74 48.4763C135.787 48.4589 135.829 48.4296 135.862 48.3912C136.066 48.1184 136.331 47.897 136.635 47.7446C136.94 47.5923 137.276 47.5133 137.617 47.5138C137.689 47.5197 137.76 47.4971 137.816 47.4508C137.871 47.4045 137.907 47.3382 137.914 47.2662C137.917 47.2308 137.912 47.1953 137.902 47.1615C137.891 47.1278 137.873 47.0966 137.85 47.0696C137.827 47.0426 137.799 47.0205 137.767 47.0044C137.736 46.9884 137.701 46.9787 137.666 46.9761C137.235 46.9631 136.808 47.0541 136.42 47.2413C136.032 47.4285 135.695 47.7065 135.437 48.0516C135.393 48.1063 135.372 48.1762 135.378 48.2463C135.385 48.3164 135.419 48.3812 135.473 48.4266C135.51 48.4526 135.55 48.474 135.593 48.4903Z" fill="#263238"/>
<path d="M144.699 48.5609C144.75 48.5782 144.805 48.5782 144.855 48.5609C144.888 48.547 144.917 48.5269 144.942 48.5015C144.967 48.4762 144.986 48.4463 144.999 48.4134C145.012 48.3805 145.019 48.3454 145.019 48.31C145.018 48.2746 145.011 48.2396 144.997 48.2071C144.824 47.8106 144.558 47.4615 144.222 47.1894C143.885 46.9172 143.489 46.7299 143.065 46.6434C142.995 46.6332 142.923 46.6514 142.866 46.6938C142.809 46.7362 142.771 46.7995 142.761 46.8698C142.752 46.9398 142.771 47.0104 142.813 47.067C142.855 47.1236 142.918 47.1619 142.987 47.1741C143.32 47.2521 143.63 47.4074 143.892 47.6275C144.154 47.8475 144.36 48.126 144.494 48.4406C144.518 48.474 144.549 48.502 144.584 48.5228C144.619 48.5435 144.659 48.5565 144.699 48.5609Z" fill="#263238"/>
<path d="M132.904 41.4497L133.279 43.9404C132.862 44.155 132.541 44.5187 132.38 44.9592C132.219 45.3996 132.229 45.8846 132.409 46.3178C133.272 48.4406 132.168 51.7025 130.59 53.0469C130.59 53.0469 130.513 52.1412 129.748 52.3747C128.984 52.6082 129.324 57.3277 130.895 59.5849C128.899 57.5223 127.472 54.9769 126.755 52.1978C125.446 47.6198 125.581 44.2234 126.479 42.412L132.904 41.4497Z" fill="#263238"/>
<path d="M141.069 56.2734C140.833 56.9306 140.646 57.6047 140.511 58.29C140.388 58.2971 140.265 58.2971 140.143 58.29C138.473 58.2192 137.723 57.6319 137.397 57.0022C137.246 56.6916 137.171 56.3497 137.178 56.0045C137.176 55.8084 137.202 55.6131 137.256 55.4243C138.263 55.9319 139.369 56.2143 140.496 56.2522C140.85 56.2734 141.069 56.2734 141.069 56.2734Z" fill="#263238"/>
<path d="M140.496 56.238L140.319 56.8324C138.749 56.7546 137.652 56.4928 137.178 55.9904C137.176 55.7943 137.202 55.5989 137.256 55.4102C138.263 55.9177 139.369 56.2002 140.496 56.238Z" fill="white"/>
<path d="M140.143 58.2761C138.473 58.2053 137.723 57.618 137.397 56.9883C138.032 57.0295 138.655 57.1828 139.237 57.4411C139.62 57.6161 139.937 57.9086 140.143 58.2761Z" fill="#DE5753"/>
<path d="M136.647 42.9994C136.829 42.7516 137.092 42.5746 137.39 42.4984C137.688 42.4223 138.003 42.4518 138.282 42.5819C139.477 42.9286 140.532 44.1315 141.763 45.6599C142.994 47.1882 145.428 47.1953 146.008 46.2896C146.589 45.3839 145.449 44.1174 145.449 44.1174C145.449 44.1174 146.497 38.3082 140.164 36.9779C133.831 35.6477 130.498 38.4497 130.498 38.4497C130.498 38.4497 125.241 38.6266 124.838 43.4876C124.701 45.4617 124.82 47.4452 125.192 49.3888C125.192 49.3888 123.776 51.1648 126.437 51.0587C129.458 50.9384 133.088 49.2968 133.265 46.3604C133.442 43.4239 136.647 42.9994 136.647 42.9994Z" fill="#263238"/>
<path d="M126.019 53.0683C126.625 54.3651 127.718 55.3698 129.062 55.8632C130.845 56.5 131.892 54.9363 131.496 53.1815C131.142 51.6177 129.805 49.3606 127.958 49.495C126.111 49.6294 125.298 51.455 126.019 53.0683Z" fill="#EBB376"/>
<path d="M117.981 70.5171C112.908 71.9959 105.818 106.519 106.752 110.997C107.686 115.476 125.503 134.347 125.503 134.347L130.456 130.59C130.456 130.59 115.314 109.151 115.13 104.672C114.946 100.193 121.845 83.586 121.845 83.586C121.845 83.586 121.661 77.9891 120.911 75.1871C120.384 73.3898 119.37 71.7733 117.981 70.5171Z" fill="#407BFF"/>
<path opacity="0.5" d="M117.981 70.5171C112.908 71.9959 105.818 106.519 106.752 110.997C107.686 115.476 125.503 134.347 125.503 134.347L130.456 130.59C130.456 130.59 115.314 109.151 115.13 104.672C114.946 100.193 121.845 83.586 121.845 83.586C121.845 83.586 121.661 77.9891 120.911 75.1871C120.384 73.3898 119.37 71.7733 117.981 70.5171Z" fill="white"/>
</svg>
