<svg width="70" height="70" viewBox="0 0 70 70" fill="none" xmlns="http://www.w3.org/2000/svg">
<path opacity="0.3" d="M50.2 27.4001L35 36.9001L19.8 27.4001V46.4001H50.2V27.4001ZM50.2 23.6001H19.8L35 33.0811L50.2 23.6001Z" fill="#F8F8F8"/>
<circle cx="35" cy="35" r="35" fill="#75DBCE"/>
<path d="M19.8 50.2H50.2C52.29 50.2 54 48.49 54 46.4V23.6C54 21.51 52.29 19.8 50.2 19.8H19.8C17.71 19.8 16 21.51 16 23.6V46.4C16 48.49 17.71 50.2 19.8 50.2ZM50.2 23.6L35 33.081L19.8 23.6H50.2ZM19.8 27.4L35 36.9L50.2 27.4V46.4H19.8V27.4Z" fill="#F8F8F8"/>
</svg>
