<svg width="18" height="24" viewBox="0 0 18 24" fill="none" xmlns="http://www.w3.org/2000/svg">
<path d="M18 24H15.75V21.7143C15.75 19.8207 14.239 18.2857 12.375 18.2857H5.625C3.76104 18.2857 2.25 19.8207 2.25 21.7143V24H0V21.7143C0 18.5584 2.5184 16 5.625 16H12.375C15.4816 16 18 18.5584 18 21.7143V24ZM9 13.7143C5.27208 13.7143 2.25 10.6442 2.25 6.85714C2.25 3.07005 5.27208 0 9 0C12.7279 0 15.75 3.07005 15.75 6.85714C15.75 10.6442 12.7279 13.7143 9 13.7143ZM9 11.4286C11.4852 11.4286 13.5 9.38187 13.5 6.85714C13.5 4.33241 11.4852 2.28571 9 2.28571C6.51472 2.28571 4.5 4.33241 4.5 6.85714C4.5 9.38187 6.51472 11.4286 9 11.4286Z" fill="black"/>
</svg>
