<svg width="22" height="22" viewBox="0 0 22 22" fill="none" xmlns="http://www.w3.org/2000/svg">
<path d="M3.25016 18.3041C3.24844 18.2783 3.24042 18.1964 3.16479 18.1322C3.07714 18.0543 2.97745 18.0933 2.97745 18.0933C2.97745 18.0933 2.34437 18.2004 2.02641 18.2417C1.79495 18.2726 1.485 18.3173 1.17677 18.3545C1.02724 18.3723 0.880573 18.3952 0.74651 18.4112C0.428542 18.4439 0.187344 18.4599 0.187344 18.4599C0.187344 18.4599 0.118594 18.4794 0.0624479 18.5453C0.0177605 18.598 0.00401042 18.6645 0.00171875 18.6857L0 18.688C0 18.6914 0 18.6954 0 18.6954V21.6305C0 21.8098 0.142083 21.9496 0.317396 21.9496H2.93276C3.10635 21.9496 3.25016 21.8075 3.25016 21.6322V18.3116C3.25016 18.3116 3.25016 18.3098 3.25016 18.3058V18.3041ZM5.49542 17.5908C5.45417 17.6023 5.40203 17.6258 5.37052 17.6665C5.31781 17.7386 5.31609 17.8206 5.31609 17.8263V21.6305C5.31609 21.8058 5.45818 21.9479 5.63349 21.9479H8.25057C8.42417 21.9479 8.56854 21.8058 8.56854 21.6305V17.0569L8.56625 17.0586C8.56854 17.0082 8.55479 16.9165 8.46714 16.8558C8.38922 16.8031 8.31703 16.8128 8.26661 16.8266C8.2351 16.8386 8.20588 16.8501 8.20588 16.8501C8.20588 16.8501 7.30583 17.121 6.8538 17.2436C6.39948 17.3662 5.4874 17.5908 5.4874 17.5908H5.49542ZM10.8253 15.9305C10.8058 15.938 10.6866 15.9809 10.6614 16.0319C10.6339 16.0864 10.6362 16.17 10.6362 16.17H10.6379V21.6305C10.6379 21.8075 10.7783 21.9496 10.9553 21.9496H13.5724C13.746 21.9496 13.8904 21.8075 13.8904 21.6322V14.7652C13.8881 14.7515 13.8669 14.6363 13.754 14.5836C13.742 14.5802 13.6818 14.5544 13.6234 14.5739C13.5495 14.5996 13.4618 14.6638 13.3427 14.728C13.1186 14.8529 12.8127 15.0144 12.4856 15.176C11.813 15.5054 11.0567 15.8308 10.8253 15.9305ZM15.958 13.1164V13.1146C15.958 13.1146 15.958 13.0562 15.9792 13.0132C16.0027 12.9703 16.0514 12.933 16.0514 12.933C16.0514 12.933 16.4822 12.5767 16.7567 12.3274C16.8541 12.2318 17.2964 11.8009 17.667 11.4033C17.8269 11.2303 17.9787 11.039 18.0916 10.9009C18.3545 10.5812 18.7877 9.86792 18.7877 9.86792C18.7877 9.86792 18.8398 9.72354 19.0094 9.74302C19.183 9.76479 19.2024 9.93036 19.2024 9.93036V21.6282C19.2024 21.8035 19.0581 21.9479 18.8851 21.9479H16.2737C16.1001 21.9479 15.9557 21.8058 15.9557 21.6282V13.1146L15.958 13.1164ZM0.319687 16.2949C0.699531 16.2519 4.69448 15.7919 8.37375 14.6248C10.3068 14.0107 12.2048 13.1673 13.5884 12.3973C14.5217 11.8789 15.1708 11.3781 15.6401 11.0642C16.8816 10.2323 18.2107 8.78224 18.9452 7.43016C19.7249 5.99385 19.8768 4.56385 19.8768 4.56385C19.8768 4.56156 19.8768 4.56156 19.8768 4.55984C19.8808 4.51458 19.8882 4.47219 19.898 4.44469C19.906 4.42521 19.9157 4.40745 19.9272 4.39427C19.9449 4.3725 19.9954 4.33583 20.0423 4.32208C20.0601 4.31635 20.0773 4.31406 20.0928 4.31406H20.0269C20.0131 4.31406 20.0017 4.31406 19.9896 4.31406H20.134C20.134 4.31406 20.1317 4.31406 20.1283 4.31406H21.7302V4.31234C21.7514 4.31234 21.882 4.3026 21.9324 4.18745C21.9794 4.08203 21.9169 3.97719 21.8992 3.94797H21.9015L21.8974 3.94396C21.8957 3.94167 21.8934 3.94167 21.8934 3.94167V3.93995L18.0549 0.0973958C18.0549 0.0973958 17.9787 0 17.879 0C17.7799 0 17.7003 0.0973958 17.7003 0.0973958L13.8589 3.93823C13.8262 3.9749 13.7712 4.05682 13.8142 4.16625C13.8669 4.31406 13.9992 4.31406 14.0112 4.31234V4.31406H15.7649C15.7747 4.31406 15.7844 4.31406 15.7924 4.31406H15.7145C15.7145 4.31406 15.8274 4.31234 15.8973 4.39427C15.95 4.45615 15.9523 4.55583 15.95 4.60281C15.9362 4.75865 15.8039 5.98984 15.0671 7.32703C14.7497 7.90167 13.7322 9.43536 12.1619 10.5617C10.1544 11.998 7.4399 13.0367 6.17375 13.428C3.39854 14.2897 0.621615 14.6363 0.317396 14.6735C0.241771 14.6793 0.112865 14.7005 0.0624479 14.7515C-0.00973951 14.8254 0.00171875 15.0224 0.00171875 15.0224V16.0474C0.00171875 16.0474 -0.00171882 16.1992 0.0933854 16.2559C0.161562 16.2949 0.245781 16.2989 0.290469 16.2966C0.290469 16.2966 0.292188 16.2966 0.296198 16.2966C0.309948 16.2949 0.319687 16.2949 0.319687 16.2949Z" fill="black"/>
</svg>
