<svg width="70" height="70" viewBox="0 0 70 70" fill="none" xmlns="http://www.w3.org/2000/svg">
<circle cx="35" cy="35" r="35" fill="#75DBCE"/>
<path d="M25.5555 35H44.4444M25.5555 27.4445H36.8889" stroke="#F8F8F8" stroke-width="1.5" stroke-linecap="round" stroke-linejoin="round"/>
<path d="M18 50.6589V21.7778C18 20.7758 18.398 19.815 19.1065 19.1065C19.815 18.398 20.7758 18 21.7778 18H48.2222C49.2242 18 50.185 18.398 50.8935 19.1065C51.602 19.815 52 20.7758 52 21.7778V40.6667C52 41.6686 51.602 42.6295 50.8935 43.338C50.185 44.0464 49.2242 44.4444 48.2222 44.4444H27.3708C26.8046 44.4445 26.2456 44.5719 25.7352 44.8171C25.2248 45.0623 24.7761 45.4191 24.4222 45.8611L20.0192 51.3653C19.8727 51.549 19.6727 51.6825 19.447 51.7475C19.2212 51.8126 18.9808 51.8058 18.7591 51.7282C18.5373 51.6506 18.3452 51.5061 18.2092 51.3145C18.0732 51.1229 18.0001 50.8938 18 50.6589Z" stroke="#F8F8F8" stroke-width="1.5"/>
</svg>
