<svg width="22" height="22" viewBox="0 0 22 22" fill="none" xmlns="http://www.w3.org/2000/svg">
<path d="M11 22C4.92486 22 0 17.0751 0 11C0 4.92486 4.92486 0 11 0C17.0751 0 22 4.92486 22 11C22 17.0751 17.0751 22 11 22ZM9.48409 7.05605C9.41182 7.00786 9.3269 6.98215 9.24 6.98215C8.99701 6.98215 8.8 7.17914 8.8 7.42215V14.5779C8.8 14.6648 8.82574 14.7497 8.87392 14.8219C9.00867 15.0241 9.28191 15.0788 9.48409 14.9439L14.8509 11.3661C14.8992 11.3338 14.9406 11.2924 14.9729 11.2441C15.1077 11.0419 15.0531 10.7687 14.8509 10.6339L9.48409 7.05605Z" fill="black"/>
</svg>
